<mxfile host="app.diagrams.net" modified="2024-03-12T04:22:26.378Z" agent="Mozilla/5.0 (Windows NT 10.0; Win64; x64) AppleWebKit/537.36 (KHTML, like Gecko) Chrome/122.0.0.0 Safari/537.36" etag="DXmypTrd7lC0MmJB7UeZ" version="24.0.5" type="github" pages="2">
  <diagram name="기술스택구성도" id="lxz3IJRdc6AnGWi2tXEg">
    <mxGraphModel dx="1434" dy="749" grid="1" gridSize="10" guides="1" tooltips="1" connect="1" arrows="1" fold="1" page="1" pageScale="1" pageWidth="827" pageHeight="1169" math="0" shadow="0">
      <root>
        <mxCell id="0" />
        <mxCell id="1" parent="0" />
        <mxCell id="gQkTm3h-wOil9FjOjSS_-1" value="" style="rounded=0;whiteSpace=wrap;html=1;" vertex="1" parent="1">
          <mxGeometry x="20" y="40" width="1150" height="700" as="geometry" />
        </mxCell>
        <mxCell id="gQkTm3h-wOil9FjOjSS_-2" value="" style="rounded=0;whiteSpace=wrap;html=1;fillColor=none;strokeWidth=3;strokeColor=#CCCCCC;" vertex="1" parent="1">
          <mxGeometry x="470" y="650" width="270" height="75" as="geometry" />
        </mxCell>
        <mxCell id="gQkTm3h-wOil9FjOjSS_-3" value="" style="rounded=0;whiteSpace=wrap;html=1;fillColor=none;strokeWidth=3;strokeColor=#CCCCCC;" vertex="1" parent="1">
          <mxGeometry x="50" y="510" width="390" height="210" as="geometry" />
        </mxCell>
        <mxCell id="gQkTm3h-wOil9FjOjSS_-4" value="" style="rounded=0;whiteSpace=wrap;html=1;fillColor=none;strokeWidth=3;strokeColor=#CCCCCC;" vertex="1" parent="1">
          <mxGeometry x="783" y="430" width="287" height="290" as="geometry" />
        </mxCell>
        <mxCell id="gQkTm3h-wOil9FjOjSS_-5" value="" style="rounded=0;whiteSpace=wrap;html=1;fillColor=none;strokeWidth=3;strokeColor=#CCCCCC;" vertex="1" parent="1">
          <mxGeometry x="470" y="350" width="270" height="280" as="geometry" />
        </mxCell>
        <mxCell id="gQkTm3h-wOil9FjOjSS_-6" value="" style="shape=image;verticalLabelPosition=bottom;labelBackgroundColor=default;verticalAlign=top;aspect=fixed;imageAspect=0;image=https://logowik.com/content/uploads/images/nodejs.jpg;" vertex="1" parent="1">
          <mxGeometry x="495.03" y="455" width="79.94" height="60" as="geometry" />
        </mxCell>
        <mxCell id="gQkTm3h-wOil9FjOjSS_-7" value="" style="shape=image;verticalLabelPosition=bottom;labelBackgroundColor=default;verticalAlign=top;aspect=fixed;imageAspect=0;image=data:image/png,iVBORw0KGgoAAAANSUhEUgAAAVsAAACRCAMAAABaFeu5AAAAkFBMVEX///+ZAACUAACTAACQAACbAAD16Oj04uKdAADs1dX67+/pz8+4cnKlKSn//PzHg4OzWVnVrKz89fXZtLSbDg67bGzDfX3Kjo7Pn5+fGRnv29vmysr57u7NlJTiw8OnNjauTk62YmLfu7uiIyOfFxewUlLXqKiJAACsPj6/cnK6aWmsRETDgIDQnJymNTWkLS0nKMWqAAATG0lEQVR4nO1da3uqvBKVBLBqRQUrXhG8sL3U8v//3REkkysalCr2PevDfnYVISwmkzWTSWg0ngbHdZuz1WB8+t73w90y6WZIlrvjMYz234vxOF515q7rPK9J7w6nOV2Ne5+H49rCZ6AUhoTsY4SxiT6S7WdvHEyb7qtbXmtMg/jrmBgZoTKdxUhZRsb6eDhT/Op7qB2c+eoUTQpMtBTHCHVHcef/fuICe+YfNqmpPsIqzzBG3f1p2n71nb0WU29/tCqklSN4E/aC/yi/tvc1fNAH3CYY/Sw6/zH/4Hb8tYl/lVfgFxtRbL/6hp+F9uoweQ6vwC/a9WZ/33zng9D4XUdQRK+1n7365n8T88HRfAGvhF5sjf6o9TpBZOGXEUvo7frNVxNROWx//QpXIAMZofdqMqqEE4Qv9AUSMPL/inBoj5NX+wIRCEV/YWCzv42qTfaSAcPmBeezf1hnT5r/WZw6E87xE7+amgfR/KpMyaZpAmRsusvw4A+81axlt8WUjOPOm61g5Q38URQu1+nYdYVl/BG/sWqYVsPsmVVjvf3yvU6rVJLWnnZWizPLG1SQssDD8Zsmfe2vh5XBmVXzY+vHnfkjHLj27PR9tEwFw2hyekPbne8fZPb8824Uz6ozLDcY7BNDdBLIGr8Zu67/CLNphjs6dea/0bBWHCU8v3g4+IUL/RrGm/uZRaZ1GP/q5JfbjPcWK7hx2PrFy1WK1vpeZs/2dDw95z6bcZ8mjRAavYVjcEd3RgoIJ/vgmeO2M+stCb3IeoNIeDW8y2gRXvqtFwii6WKX60Tcr3kg7OzvMVqEN4vXpaeapySjFxnjl7VBA7N7jBZvRq8eSpp+Ri8+1td0/fJGi/DWq0Ns5ATR2fXW1uvOj6WNFqFefVLV9sLCBt6/uhkqBKVzByipWypq8INwt35+YVHWH+Dj6tVtViAITaNu7YpKUmtuO69ucgGC5T//1W1g0U7K+QMU1pXZFMF6W58orVkuyMW74NUtvoHBti5Od2qVstlJTXUOC/dUD/3SKsUsqpUzK0YdRHejU8odbOthD++BaSmjVQva+aiXY1TsL/we4PRbN1Mv2GWoPRYYrWeiHPin8EpwDDJHv3Qz9UJ7UoLbY9FZ+ozMKPIZMyqg0V+o27gJp1QKISk4i7umx+AipzCmVxr+xkTaFTRbnTNa0+de9lAuZCiwyRZzFvRVcKk+PabQ/quHs+od1+lUfjb/nvTHTxuKT+UCXVwQqPvsE5qoxY9DbRs9K4U9j3fCwoGzr58sisIK9EFhPfoMZiUTX6hgDAq5B6DOk0/RrSNktEcX3Fcw3iooXUFor14gaLIHPcitW2Ycy6DuzC5vGmqBNWC6iG4D7XxlqnlH/YEbFRdYIDRSda4que2Xn79RLvfyeM+yU15sDxcr9MgS7DwWR+W5HVwvvkSGYsitkFvPLLx0EbAyR/PJ3wZW2YSzpN9rM3U/t/ub96aYn6iO27Zugsby6BUXqjMJJ1KOeG3G3WpLoXu5dUONHolDMQ9ZHbe68gtNG9TmVA63JdgIUs1YrajfUPsMFe7k1tVLRqOjQG5l3Aaa8gsFnK9UnGks3slacRCVaain3cb7uHV08/zowP+wMm6XhZfkgFMtuoLGquTTUWqzQuIw7lZfUN3Hrf4QjXmhXRW3np7ZXvq3TY1OzoPNwd1uyEGK2IBerkTAexe3co1FKsaG66FUuSsyWBW3G0MLeffuwiX70pkC0uD1ifxPPohJ1Gz1G3kPtzORWnRc5IXAzVVfUGaIa0xF3K70+g3p3dRbyr50BIxCuvJDksHUJ5cJeO/g1hHiIXzkXJAt1GhyorIibiUfqQQmkosZ+ERfCsL1TBpJGcgulUbFqETp2B3c+oLWloLEGX+LIfNVNdx29Mx2SY536GAmxjNNKC+eNnqkFlaUAow1WSWaWZ5bm78xSzFuNjl3aDK2Ug23n1rcMua3hWuK4jUmp5ow5t0VDpreEfA27uF2xN+Yso9wGSrWDCrh1tFhlhu3aFcTo4eI2GqaIyNHmUIab0DtvsyQX5rbORcimgUpUe4BfNDPK+FWT4Bh5vQt+gtBQpF2ZpEuyX+LZHxRbrlhzp0t+hsLmcj6GSn2TRG4dVqL8ON88Md2UbCyivO2yvgwuyp3FL3LSrhlpgCKwUUtNB0ppGtA8uA0gCRyQJBqzg7OumQ+bn0yWzQhZIainXHcOnECS3MQtpS1qaAVU1iFpTXf7DwJvWgl3Op5W67iCx6HUPoBlhKmfzXBvLlQfa4KeFuhJOXxjneQLLcdYS08MuSVOVOOneIalRlzHJN+qoLbQItb3rHCkGWE3OdEdl0y4s4P+ZMboGmiBoZHR70YCHOEMNwu5KQhssSh6sR19uKKMHcyBBi0e1bBbU+HW2H6gE43cukaUGD4omWIAOGNhnGDubeedwvagFlPBNx638ongQQnwrmEa/GfywI+rYLb0NCBcPIh3D3rKzxCUXJpIlgoZ/XU3eY33JwUL9xnRBrh1lgWHM6Ty49R5ecqKuCWrSYohihRIxhHYsWnZEwGNgymRzpgdHlncPmSVN7vYuoA7Zvpey4vxwlXs3ytXQXcTrVcwrfwK7BQNr8BjwkR9UCCaTZ+o+mTPODd0RYgtNxGUbhhprppVCxwi1B32+/3fwzGQWwYCmP2xibliamA246OupViWxuuPKQfUtlLzPQkGHIKmqi5/JSurECGP81G+3ZzYcFRoNN4bvHhsu7SsQfU7lkb2LPS6rM8MRVwG+vYrSnltyEMZ1LfMEjBPA1M8AypQoLE0EUy0+o+HDGRhAsrLuC58tyyfp6ZxqAkbJmD1TN711EBt1oyAUs/A8GNqEmTUZERFfBwWtJHOWkQpImVDNCwTf4By+2EjwchimY6CJvcKyxLu4IKuB3pcPsh/QwkAL0bGJgZIglzlDgq38yUH0hVyfk/MjKS2I/hVponAsuFaWOXlWBYWutitwoALD6LW7lkcQ7fgb6iMQE9DOpnwE3QRE2XJQVF8iUs/ivKrSLIIt9Bsp0rd8VS5HCi9b8cqOirgFutBKOiHJTKYtLuvWLggvgWSkCoessI+iBnUYgkwnueCmDsVi7oGYgJzTlIcEMVlUnT0eRIGPWexa0obxuMO4R0Dbl1zrkRr0d0Pa2oyQLejskSLYDkI/LyEeBWlfWF2hVCow1P7XXcavmEofy7GW9/jCNF7DjTE4yZygIrNT4QacpwnziFS8Ek5VZVKxUJX9bBbu8cy5hsVii0NmQPA/mcuxXqlLPE4071G6ltu0zBAbfKefeFkLu44W+fwq2vw62qgIZqnIt2BQXGdW9I9eZDO9VuqS5wcuMqKOUF7Z05Y+BWWeZEHiJJFt/QCU/htugiHMRZmRSQwrs0HPqgMHVLJHw+gNPIIT1syn8pgoTHZnZrkAdTziDA4q0w/+C6vn0KtyutmFcxQwq9/UIMzDyu+REfNFempGhyKittoPkUpSDiqbk+XwZW/ZOHgNfjsqdwq5erUS3Sgx9m6RrS2UWhCpMPVso5PIFLwOvpXJw8PcKeep0FOJ9u/my5fMJBPHxcYFKVcns7c2dIM14X0Hm2Blv0IXY/ooUy2wdHcjlsocntiW2pujwPVqesc/E7YM8tDcZemkMjYFLYlXLb+DE0sFH8ELpVOkzZkFoRXfM3O4CDE8wCXr2BlAyPwK167UdCuM3tlqtokZNNLJhCoWq5jbScgmLzCejtqQ3CkC6ViIFDT0WyUEmmlSgiN0y4NdU3SrjN5zyY6h9DTgTxYEy8Wm61hIKqBBl6YRonQS2CFGDRFI7NxBeXw741ub1kIwm3yjgDWgP5Da7KTRFZUhx+i1u9arAfxbYkMFosaUWtrCQp7R617jxQ9q/rBFhNnY2W1+22TTLKMBHCZaZVHQ/ATGtVy23D0IFqTQ5dJGbDRM2H/Awgru1T/2O5/Fcjt30NXOyg9rdNQgNIgjkrBdCViV52Zq1ibvdahqtoG7md88gNqUJFGgVU3sSFcTMXasQXFxYUsbiuE4i7YaQsVzCkTEJccPg9bvXWkaisBWo7fKJisEIIu2SUQQNoaz60gMXI2VsZEDso9S3xAAyHfFi0LtpsiVP4FXPbYLNxxQjlH0KeZw1JJ9U4A9M2tJg/f1Bg+TuNXaZsPi0mALLHlAaHPNTLF0XPjxvzquZWb7RWdEW53EmZRpFL/ruESkhWKcf+zj5fHc3napaKQ4FHVonzEgirE0I9zrqr5lYr7FXx1pZWaihXi9ni+akJwZyYcrKQTLwIeTDVxg2QBuMI5NfIyJFvQ1rIUzW3mmVL8mwhX3KVtkG9WiwRDwOPCbW/ymGcaKNLxE1z42IlSoN5SHxZH1+ThzZiPV7zKJhHIbdOMYpozaBXyqhYhSfFrOrriGkDGhdD8GQqCubJWJQPkEzmQ/IgECMKiYMv8cpRh6bp3KnsDdXcGutuMYbXN9MUDasAUjwrSoxQfXqxdoepIIKbV3gc4oytucCtnDpSJ+YV1W4IJdEiCGbBahF1FXsqFHB7DTeKH2Z6J5LUq7BUomC/MDE8YQmAOieprMgldWJy5Z6BBb9O+49o0YqxJHtLUtG7pe7gVsr8CdBZBm8oXC5fz6+O9Bti1+R8IoRq+MAl1adQ5UUGEjYbirmtOsDnKDyx5nJaIOpebgM/w+zk9zqNtu/3oIEtPW6lwYr3pIUJEaHojOWlSc+9pi/Jan7Tj4mNcplmtAZr6VDDsBQ7kQx0yB3C6uN7ue39O4sa898iweb+7AcQY2da072GNJ61uJi9cL0+r8J4ET+mN4FQf+wFgTfeMR0W4imxRnTzNfA8z2fW8JvK3jnQuLUm1FHcy+182lrj5vQchH5Mzj5qYtLJaHd4+yQXcORyY8WV9fps7CPmUr+Y55O9gY/faAquJ82QkH2+4O+ClYAd6wa7qAM5hQf8rbs2z/92rT22+8OI4VaUgsUYcuSy2xOoemQOtltIUu7aBtxMeuDW7BMq3J7ZFlWsgBmTjniYWyPA8fCzz3JbYhMHlhvWk6om1XKwabxEouBQeOtsahPyCYpVOumh2yt19/GVLaw+UmlNkqSPc4vcyRJ7PLeu5iYKfJ6Z0TiFCiw9OVPfqYg8FwWCKGEfI+TGlZv439icxfXV71hBaJ89arc6btsLhN0tx22Jfe1YRXelKJYF3UVTKbWnW/l1Egh/cxZOuW2sxJU9+Ofm3izu+ChdA+E+sRMLZzDBZ//DmiB7wbnGv/O/Q3Pe+tdtHP/xelTd11RgVs8cLLJpoWrTH0BswN6GahHcidgxLH1f57fwrOz8BGkBlesjODrdVVFvidP0tLu8k/ZyBbPLbMYYeBkG8IxmHV3kFuqs0lasBm7jfJIgFjyU3gxERu6h+m3926vRcT08G6c1Sfqnm3a42ifng61hchiU2QW/tYq/D9tjGC28526ev9V3Cz+/s71p2242td+AeD7YLtYmNYPeQr4cdXt7Tt1RZr9x3H8bm6kHSu2Tb7zV21pfj1KvzsDbq3VW/4eAUq98QahXn/cAvQHsUq8qQtYbOAbXe/Je/IVol3ubYf3fA+VFdXkP1DnC0JyGANvtv/rNptfQ+enXym99lZsJqfF791rber13r6FZlcuaLg7r6BlmfVNdPvZStK5vLa+idxnXqu81GsER4Ukd3wKmtQW6aLyj+ujd+cLCCJfZ8PGZ0FxFw7Mb1uS90of0vdI1DhxbxZtLFQNvXm689iJ7H7pZ4/ehnx+/fkaXM97k9Lq7cge7LG2ufNlIrTBLSqoxQu8u3zPpuWjGB3RpMNrXwTddh1MwT3ibXrQcBc+8P2fW2xn5TA9ev8fL/G7N7l+j1wgVG9n+BpqDvsHs8Fq3cKEYq5972T3fpzn8jLVnae6B24z3hsn0Llyj9MFtOONbZT/XzRcl0Wn2GzfstuIo4cs9cVLHAPEa3N6dbpfya6yjuMKcTjsY7BPp7SJoWHd1oMJ8VDoKlgnGuDtaeNP5Iz7CtWen76NlYvlpo82zXj5ZNZqfcvHLfQQb6+2X75V8jas97awWoyjcIAWrKfB6XH/dVYjm/jHPwFN8Dkq7yzAaLQbeatayJV5cd97sBCtv4J8Z/VlbRhGpObNezVJFZeH6m6rYBZJRVnVrnpG/tzVl0bzgUmN084kiVMsUZ1m48bIK11AlsPXyFEZlmEVmfdg9C2ixru290fYnlXneh4Csr7rOJt0PJ/gavto3nL1s/EfrptzVAb2OXmR2F3Wcr6kMziqyXuEcEPrjxF7gzPbJU60XYSM8/RldcAvudLF9knc4Exs9KW1ZHzhBb31b4z/GK0LLxd9TBXqYz/zt5lpc+gCteBP2gj8qCnTRnp4+k6uBf3laUfI5nv7HeQW4s3Hf0MkD3GA1zap/xy33zZMw1cNpBePDMbEQLslxloXc7Lbf3uw/oLMegGNPO3Hvs7/bGNkqQsWWG/DeCmxia7Psf/peq1mXYuR3gOO47nQWrAbx+NTbH6JteFwm3WR33EZfI388jmNv1bFd98a2RW+E/wEVySmktg8SoQAAAABJRU5ErkJggg==;" vertex="1" parent="1">
          <mxGeometry x="62.789999999999964" y="620" width="107.69" height="45" as="geometry" />
        </mxCell>
        <mxCell id="gQkTm3h-wOil9FjOjSS_-8" value="&lt;b&gt;user&lt;/b&gt;" style="text;html=1;strokeColor=none;fillColor=none;align=center;verticalAlign=middle;whiteSpace=wrap;rounded=0;" vertex="1" parent="1">
          <mxGeometry x="902.38" y="245" width="60" height="30" as="geometry" />
        </mxCell>
        <mxCell id="gQkTm3h-wOil9FjOjSS_-9" value="" style="shape=datastore;html=1;labelPosition=center;verticalLabelPosition=bottom;align=center;verticalAlign=top;" vertex="1" parent="1">
          <mxGeometry x="642.49" y="385" width="60" height="50" as="geometry" />
        </mxCell>
        <mxCell id="gQkTm3h-wOil9FjOjSS_-10" value="&lt;b&gt;Mongo&lt;br&gt;DB&lt;br&gt;&lt;/b&gt;" style="text;html=1;strokeColor=none;fillColor=none;align=center;verticalAlign=middle;whiteSpace=wrap;rounded=0;" vertex="1" parent="1">
          <mxGeometry x="647.49" y="440" width="60" height="30" as="geometry" />
        </mxCell>
        <mxCell id="gQkTm3h-wOil9FjOjSS_-11" value="" style="sketch=0;outlineConnect=0;fontColor=#232F3E;gradientColor=none;fillColor=#232F3D;strokeColor=none;dashed=0;verticalLabelPosition=bottom;verticalAlign=top;align=center;html=1;fontSize=12;fontStyle=0;aspect=fixed;pointerEvents=1;shape=mxgraph.aws4.gear;" vertex="1" parent="1">
          <mxGeometry x="510" y="535" width="50" height="50" as="geometry" />
        </mxCell>
        <mxCell id="gQkTm3h-wOil9FjOjSS_-12" value="&lt;b&gt;node.js&lt;br&gt;&lt;/b&gt;" style="text;html=1;strokeColor=none;fillColor=none;align=center;verticalAlign=middle;whiteSpace=wrap;rounded=0;" vertex="1" parent="1">
          <mxGeometry x="505" y="590" width="60" height="30" as="geometry" />
        </mxCell>
        <mxCell id="gQkTm3h-wOil9FjOjSS_-13" value="&lt;b&gt;클라이언트&lt;/b&gt;" style="text;html=1;strokeColor=none;fillColor=default;align=center;verticalAlign=middle;whiteSpace=wrap;rounded=0;" vertex="1" parent="1">
          <mxGeometry x="202.5" y="498" width="85" height="30" as="geometry" />
        </mxCell>
        <mxCell id="gQkTm3h-wOil9FjOjSS_-14" value="&lt;font style=&quot;font-size: 17px;&quot;&gt;&lt;b&gt;ChatPDF를 활용한 학습 증진 플랫폼&lt;/b&gt;&lt;/font&gt;" style="text;html=1;strokeColor=none;fillColor=default;align=left;verticalAlign=middle;whiteSpace=wrap;rounded=0;" vertex="1" parent="1">
          <mxGeometry x="50" y="80" width="570" height="30" as="geometry" />
        </mxCell>
        <mxCell id="gQkTm3h-wOil9FjOjSS_-15" value="" style="sketch=0;outlineConnect=0;fontColor=#232F3E;gradientColor=none;fillColor=#232F3D;strokeColor=none;dashed=0;verticalLabelPosition=bottom;verticalAlign=top;align=center;html=1;fontSize=12;fontStyle=0;aspect=fixed;pointerEvents=1;shape=mxgraph.aws4.users;" vertex="1" parent="1">
          <mxGeometry x="890" y="155" width="78" height="78" as="geometry" />
        </mxCell>
        <mxCell id="gQkTm3h-wOil9FjOjSS_-16" value="&lt;font color=&quot;#cccccc&quot;&gt;&lt;b&gt;학습&lt;br&gt;피드백&lt;/b&gt;&lt;/font&gt;" style="ellipse;whiteSpace=wrap;html=1;aspect=fixed;fillColor=none;strokeColor=#CCCCCC;strokeWidth=2;" vertex="1" parent="1">
          <mxGeometry x="320" y="565" width="80" height="80" as="geometry" />
        </mxCell>
        <mxCell id="gQkTm3h-wOil9FjOjSS_-17" value="&lt;font color=&quot;#cccccc&quot;&gt;&lt;b&gt;학습&lt;br&gt;진단&lt;/b&gt;&lt;/font&gt;" style="ellipse;whiteSpace=wrap;html=1;aspect=fixed;fillColor=none;strokeColor=#CCCCCC;strokeWidth=2;" vertex="1" parent="1">
          <mxGeometry x="210" y="565" width="80" height="80" as="geometry" />
        </mxCell>
        <mxCell id="gQkTm3h-wOil9FjOjSS_-18" value="&lt;b&gt;웹&lt;/b&gt;" style="text;html=1;strokeColor=none;fillColor=default;align=center;verticalAlign=middle;whiteSpace=wrap;rounded=0;" vertex="1" parent="1">
          <mxGeometry x="869.99" y="415" width="90" height="30" as="geometry" />
        </mxCell>
        <mxCell id="gQkTm3h-wOil9FjOjSS_-19" value="" style="sketch=0;outlineConnect=0;fontColor=#232F3E;gradientColor=none;fillColor=#232F3D;strokeColor=none;dashed=0;verticalLabelPosition=bottom;verticalAlign=top;align=center;html=1;fontSize=12;fontStyle=0;aspect=fixed;pointerEvents=1;shape=mxgraph.aws4.mobile_client;" vertex="1" parent="1">
          <mxGeometry x="902.38" y="295" width="25.23" height="48" as="geometry" />
        </mxCell>
        <mxCell id="gQkTm3h-wOil9FjOjSS_-20" value="" style="sketch=0;outlineConnect=0;fontColor=#232F3E;gradientColor=none;fillColor=#232F3D;strokeColor=none;dashed=0;verticalLabelPosition=bottom;verticalAlign=top;align=center;html=1;fontSize=12;fontStyle=0;aspect=fixed;pointerEvents=1;shape=mxgraph.aws4.client;" vertex="1" parent="1">
          <mxGeometry x="937" y="275" width="78" height="76" as="geometry" />
        </mxCell>
        <mxCell id="gQkTm3h-wOil9FjOjSS_-21" value="" style="rounded=0;whiteSpace=wrap;html=1;fillColor=none;strokeWidth=3;strokeColor=#D4E1F5;" vertex="1" parent="1">
          <mxGeometry x="50" y="134" width="520" height="76" as="geometry" />
        </mxCell>
        <mxCell id="gQkTm3h-wOil9FjOjSS_-22" value="&lt;b&gt;Web&lt;/b&gt;" style="text;html=1;strokeColor=none;fillColor=default;align=left;verticalAlign=middle;whiteSpace=wrap;rounded=0;" vertex="1" parent="1">
          <mxGeometry x="60" y="140" width="170" height="30" as="geometry" />
        </mxCell>
        <mxCell id="gQkTm3h-wOil9FjOjSS_-23" value="&lt;b&gt;사용자 인증 관리&lt;/b&gt;" style="text;html=1;strokeColor=none;fillColor=default;align=left;verticalAlign=middle;whiteSpace=wrap;rounded=0;" vertex="1" parent="1">
          <mxGeometry x="60" y="174" width="170" height="30" as="geometry" />
        </mxCell>
        <mxCell id="gQkTm3h-wOil9FjOjSS_-24" value="&lt;b&gt;인증 관리&lt;/b&gt;" style="rounded=0;whiteSpace=wrap;html=1;fillColor=#dae8fc;strokeColor=#6c8ebf;" vertex="1" parent="1">
          <mxGeometry x="260" y="155" width="90" height="32" as="geometry" />
        </mxCell>
        <mxCell id="gQkTm3h-wOil9FjOjSS_-25" value="" style="rounded=0;whiteSpace=wrap;html=1;fillColor=none;strokeWidth=3;strokeColor=#D4E1F5;" vertex="1" parent="1">
          <mxGeometry x="50" y="228" width="390" height="76" as="geometry" />
        </mxCell>
        <mxCell id="gQkTm3h-wOil9FjOjSS_-26" value="&lt;b&gt;Client&lt;/b&gt;" style="text;html=1;strokeColor=none;fillColor=default;align=left;verticalAlign=middle;whiteSpace=wrap;rounded=0;" vertex="1" parent="1">
          <mxGeometry x="60" y="240" width="170" height="30" as="geometry" />
        </mxCell>
        <mxCell id="gQkTm3h-wOil9FjOjSS_-27" value="&lt;b&gt;학습진단 &amp;amp; 학습피드백&lt;/b&gt;" style="text;html=1;strokeColor=none;fillColor=default;align=left;verticalAlign=middle;whiteSpace=wrap;rounded=0;" vertex="1" parent="1">
          <mxGeometry x="60" y="270" width="170" height="30" as="geometry" />
        </mxCell>
        <mxCell id="gQkTm3h-wOil9FjOjSS_-28" value="&lt;b&gt;학습피드백&lt;/b&gt;" style="rounded=0;whiteSpace=wrap;html=1;fillColor=#dae8fc;strokeColor=#6c8ebf;" vertex="1" parent="1">
          <mxGeometry x="330" y="250" width="90" height="32" as="geometry" />
        </mxCell>
        <mxCell id="gQkTm3h-wOil9FjOjSS_-29" value="" style="rounded=0;whiteSpace=wrap;html=1;fillColor=none;strokeWidth=3;strokeColor=#D4E1F5;" vertex="1" parent="1">
          <mxGeometry x="50" y="324" width="390" height="76" as="geometry" />
        </mxCell>
        <mxCell id="gQkTm3h-wOil9FjOjSS_-30" value="&lt;b&gt;Server&lt;/b&gt;" style="text;html=1;strokeColor=none;fillColor=default;align=left;verticalAlign=middle;whiteSpace=wrap;rounded=0;" vertex="1" parent="1">
          <mxGeometry x="60" y="330" width="170" height="30" as="geometry" />
        </mxCell>
        <mxCell id="gQkTm3h-wOil9FjOjSS_-31" value="&lt;b&gt;ChatPDF API 연동 &amp;amp; 웹/클라이언트 통신&lt;/b&gt;" style="text;html=1;strokeColor=none;fillColor=default;align=left;verticalAlign=middle;whiteSpace=wrap;rounded=0;" vertex="1" parent="1">
          <mxGeometry x="60" y="360" width="230" height="30" as="geometry" />
        </mxCell>
        <mxCell id="gQkTm3h-wOil9FjOjSS_-32" value="&lt;b&gt;API 연동&lt;/b&gt;" style="rounded=0;whiteSpace=wrap;html=1;fillColor=#dae8fc;strokeColor=#6c8ebf;" vertex="1" parent="1">
          <mxGeometry x="330" y="350" width="90" height="32" as="geometry" />
        </mxCell>
        <mxCell id="gQkTm3h-wOil9FjOjSS_-33" value="" style="rounded=0;whiteSpace=wrap;html=1;fillColor=none;strokeWidth=3;strokeColor=#D4E1F5;" vertex="1" parent="1">
          <mxGeometry x="50" y="417" width="390" height="76" as="geometry" />
        </mxCell>
        <mxCell id="gQkTm3h-wOil9FjOjSS_-34" value="&lt;b&gt;DataBase&lt;/b&gt;" style="text;html=1;strokeColor=none;fillColor=default;align=left;verticalAlign=middle;whiteSpace=wrap;rounded=0;" vertex="1" parent="1">
          <mxGeometry x="60" y="430" width="170" height="30" as="geometry" />
        </mxCell>
        <mxCell id="gQkTm3h-wOil9FjOjSS_-35" value="&lt;b&gt;Data 수집 및 저장&lt;/b&gt;" style="text;html=1;strokeColor=none;fillColor=default;align=left;verticalAlign=middle;whiteSpace=wrap;rounded=0;" vertex="1" parent="1">
          <mxGeometry x="60" y="460" width="170" height="30" as="geometry" />
        </mxCell>
        <mxCell id="gQkTm3h-wOil9FjOjSS_-36" value="&lt;b&gt;데이터관리&lt;/b&gt;" style="rounded=0;whiteSpace=wrap;html=1;fillColor=#dae8fc;strokeColor=#6c8ebf;" vertex="1" parent="1">
          <mxGeometry x="330" y="440" width="90" height="32" as="geometry" />
        </mxCell>
        <mxCell id="gQkTm3h-wOil9FjOjSS_-37" value="" style="shape=image;verticalLabelPosition=bottom;labelBackgroundColor=default;verticalAlign=top;aspect=fixed;imageAspect=0;image=https://images.velog.io/images/cyongchoi/post/d09bb55d-6d34-4fbd-bc82-e6f183994592/mongoDB.png;" vertex="1" parent="1">
          <mxGeometry x="485.17999999999995" y="375" width="105.19" height="70" as="geometry" />
        </mxCell>
        <mxCell id="gQkTm3h-wOil9FjOjSS_-38" value="" style="shape=image;verticalLabelPosition=bottom;labelBackgroundColor=default;verticalAlign=top;aspect=fixed;imageAspect=0;image=https://logowik.com/content/uploads/images/unity-new-20212110.jpg;" vertex="1" parent="1">
          <mxGeometry x="70" y="538" width="93.26" height="70" as="geometry" />
        </mxCell>
        <mxCell id="gQkTm3h-wOil9FjOjSS_-39" value="&lt;b&gt;서버&lt;/b&gt;" style="text;html=1;strokeColor=none;fillColor=default;align=center;verticalAlign=middle;whiteSpace=wrap;rounded=0;direction=south;" vertex="1" parent="1">
          <mxGeometry x="580" y="330" width="30" height="40" as="geometry" />
        </mxCell>
        <mxCell id="gQkTm3h-wOil9FjOjSS_-40" value="" style="rounded=0;whiteSpace=wrap;html=1;fillColor=none;strokeWidth=3;strokeColor=#CCCCCC;" vertex="1" parent="1">
          <mxGeometry x="470" y="222" width="270" height="116" as="geometry" />
        </mxCell>
        <mxCell id="gQkTm3h-wOil9FjOjSS_-41" value="&lt;b&gt;API&lt;/b&gt;" style="text;html=1;strokeColor=none;fillColor=default;align=center;verticalAlign=middle;whiteSpace=wrap;rounded=0;" vertex="1" parent="1">
          <mxGeometry x="560" y="213" width="75" height="30" as="geometry" />
        </mxCell>
        <mxCell id="gQkTm3h-wOil9FjOjSS_-42" value="" style="shape=image;verticalLabelPosition=bottom;labelBackgroundColor=default;verticalAlign=top;aspect=fixed;imageAspect=0;image=data:image/jpeg,/9j/4AAQSkZJRgABAQAAAQABAAD/2wBDAAYEBQYFBAYGBQYHBwYIChAKCgkJChQODwwQFxQYGBcUFhYaHSUfGhsjHBYWICwgIyYnKSopGR8tMC0oMCUoKSj/2wBDAQcHBwoIChMKChMoGhYaKCgoKCgoKCgoKCgoKCgoKCgoKCgoKCgoKCgoKCgoKCgoKCgoKCgoKCgoKCgoKCgoKCj/wgARCAHCAyADASIAAhEBAxEB/8QAHAABAAEFAQEAAAAAAAAAAAAAAAECBAUGBwgD/8QAGgEBAAMBAQEAAAAAAAAAAAAAAAECBAMFBv/aAAwDAQACEAMQAAAB6irFCsUKxQrFCsUKxQrFCsUKxQrFCsUKxQrFCsUKxQrFCsUKxQrFCsUKxQrFCsUKxQrFCsUKxQrFCsUKxQrFCsUKxQrFCsUKxQrFCsUKxQrFCsUKxQrFCsUKxQrFCsUKxQrFFP1gkAAAAAAAAAAAAAAAAAAAAAAAAAAAAAAAAAAAAAAAAAAAAAAAACJgkAAAAAAAAAAAAAAAAAAAAAAAAAAAAAAAAAAAAAAAAAAAAAAAACJgkAAAAAAAAAAAAAAAAAAAAAAAAAAAAAAAAAAAAAAAAAAAAAAAACJgkAAAAAAAAAAAAAAAAAAAAAAAAAAAAAAAAAAAAAAAAAAAAAAAACJgkAAAAAAAAAAAAAAAAAAAAAAAAAAAAAAAAAAAAAAAAAAAAAAAACJgkAAAAAAAAAAAAAAAAAAAAAAAAAAAAAAAAAAAAAAAAAAAAAAAACJgkAAAAAAAoRXGAw+rhtnw1V357Q1iZvs86xVXpss61NeuyNdmnXYmvq9Nh+muTW20/XUrqkbGsL/nnBUAAAAAAAAAAAAAAAAAAAAAAAAAAAAABEwSAAAAAAW0xGpfP4+r581UtHKpSi9c/KKdvtVbTXvczbqd7mq1qp3uarWvn2uJ+P0p1rUzW1V/j1G21a5sXLz5EcgAAAAAAAAAAAAAAAAAAAAAAAAAAAAETBIAAAAAI03Oap6GIN+WURFnyp2PloxGQ215+rU52tW2qNrRbVW1Itq1G2ItolW66n000VWtxbTXNE1mrL4aqtdwfP6cfJAAAAAAAAAAAAAAAAAAAAAAAAAAAAARMEgAAAAEGnY6qn3fLC0PnX8YvkN41/YvJ3aNt90iNL3OUTA49AEwJ+X0GgXH3s9Xr3KlF6lI2DLa5sfDzArwAAAAAAAAAAAAAAAAAAAAAAAAAAAARMEgAAAAfD720xohHvebKCXw+1vHTc8zhrLyu9zY4uN/mZOMXTeuVjE02nLRiIsy04aJnc85y/cfP22WLymJ5fRXc0S71KZhf7Tqu1cPNCmUAAAAAAAAAAAAAAAAAAAAAAAAAAABEwSAAAABbXNtaNDQ97DKETFvcW8X3HW87rmfhXTTTsxV07HXn0avTtETOrRtUTOqU57XNPL6X+L+9mzYjLYfxPsLxTLvUpGR2vU9sz+aLTnkq59zrCHQPvoHyO9bb5W6wdR5p0vzcb31byz6lJAAAABDi+iHqRruxHO8RrGrnUa+afI7fu3lboB2rmnS/N5vDltR1PP8Mg9T1+ee/FvzfefOh1Jy6o6fccovz0wAAAAABEwSAAAABbXNtaNBI97LKESt/vbxfa9Y2bVOeX6U/ONuPKzn/r5u7WadoiZ1iNoGm4/bNO9DPXcWn37023DZjC/P/YXc0TOiqaUMltuobfm8tyjq/n/nk1XfND9Emdx+UHmaz9AY02zzz6I87mL7TxPYD7ZTWsQenrzkfSDCc21HNH3z1GgHpjBcz6acWxeVxRtfZ+NdmOKavtGrnpS5tsqeZ7DM4U9Nefu98EML6f8AMHqIteKd91U8/wDWuS7gdb86ei/Oht/ePPfWDbJ1LJGdAAAAAAiYJAAAAAtrm2tGgIj3eUoC3+/wX2rUNz0emOumiPQx/ed3u/N2c8p6LrHSuAi0p9DhcfGim76fezvonbsLmcL859fdTRNu9SmYnJbhp245vLeefQ3EeWPRPSPm3tJ0EBwvXD0v5u75wMxHp/zF6lNe87+kvNpu3b+H9GKsByTPG78q6Dz4yvpLzb6SOJ6Dv2gnofY9c2M8+6vtGrm42T7mqbHs3Ui/83+kPN5hfUXl31EXGv7BzE5JtOq9GOi+dPRfnQNo7Meceh9LuzIgAAAAARMEgAAAAWt1a2c/Q96pBL4fe3i28ajt1553HltOXw3veaimOsTSptM0002VxQlVuVl0TxdmrYPN4LD9JdKZtoqUjKblpm55PKattLlj8r/ftHJTdcXpFZRseQ7KZDzf6R87GC9S+ZPTZiPNvpPzsbXsOF6yeauo6ZhTsXGt81AuvSXnX0UcX573zh50rpXmD0Mcg1fb9aPRWWxWVAHm/wBIedzXeiaKNu0q6z5rPoa02kwHnT0b58Nm71wzuYAAAAAAAiYJAAAAAtbq2s54R715gS+H2+UW3PP6duXjc/lb3rjWwX8FjF+MFqfSaNNOKfHsWr+xmzewYDPeFr0rDXHw2e79ppT2qUynJ7rpW65PJDjiAtvp9QAAAAAorAACmoW1xIAAAAAAAAAAAAAAAARMEgAAAAUVjmdN9Y+93ETM0VFvn0jm31zOnsBlvMz3MfBWPu+EFwtxcR8PmXeFsdT0bFz8/pr9aqaVZqRMMtumsbPj8YOWQAAAAAAAAAAAAAAAAAAAAAAAAAAABEwSAAAAADWdW6Tzv1O/yI19ZRMWj5/RF7ei5iL20XSOltF0ra1m5mL2s3KL/L6zVF1VKJqQrMzTlq12m/PP+eCKgAAAAAAAAAAAAAAAAAAAAAAAAAAAImCQAAAAAMHnF55e27UvY2QhfrKEXlCLphHQK3TCLShFpQiZUzFpmm4g3/45DD4occYAAAAAAAAAAAAAAAAAAAAAAAAAAAACJgkAAAAAADGZNaefY/qON26eftstu+jXGxl9cbEi+uTsSLa62JE662JFtdbFUnW52/Mc+Op7bcsvnBz4AAAAAAAAAAAAAAAAAAAAAAAAAAAAAAImCQAAAAAAAAAAAAAAAAAAAAAAAAAAAAAAAAAAAAAAAAAAAAAAAAImCQAAAAAAAAAAAAAAAAAAAAAAAAAAAAAAAAAAAAAAAAAAAAAAAAImCQAAAAAAAAAAAAAAAAAAAAAAAAAAAAAAAAAAAAAAAAAAAAAAAAImCQAAAAAAAAAAAAAAAAAAAAAAAAAAAAAAAAAAAAAAAAAAAAAAAAImCQAAAAAAAAAAAAAAAAAAAAAAAAAAAAAAAAAAAAAAAAAAAAAAAAImCQAAAAAAAAAAAAAAAAAAAAAAAAAAAAAAAAAAAAAAAAAAAAAAAAImCQAAAAAAAAAAAAAAAAAAAAAAAAAAAAAAAAAAAAAAAAAAAAAAAAImDTQgAAAAAAAAAAAAAAAAAAAAAAAAAAAAAAAAAAAAAAAAAAAAAAABSH//xAAvEAAABQMBBwQDAQEAAwAAAAAAAQIDBAUSEwYRFBUgMDE1EDRQYBYhM0AjIiQy/9oACAEBAAEFArEixIsSLEixIsSLEixIsSLEixIsSLEixIsSLEixIsSLEixIsSLEixIsSLEixIsSLEixIsSLEixIsSLEixIsSLEixIsSLEixIsSLEixIsSLEixIsSLEixIsSLEixIsSLEixIsSLEixIsSLEixIsSLEixIsSLEixIsSLEixIsSLEixIsSLEixIsSLEixIsSLEixIsSLEixIsSLEixIsSLEixIsSLEixIsSLEixIsSDQnZ9jPt9jPt9jPt9jPt9jPt9jPt9jPt9jPt9jPt9jPt9jPt9jPt9jPt/hM9gVJaIHNaG/NDfmhvrQ31sb62N8bG+NjfGxvbY3tsb22CkNgnEn9DPt11KJBPTgtxS/8AAh9aA1JSr6CfbrPvJZS88p5X+NiQaAkyUXzx9uq+6TLbrinF8u0bRcLhcLhcLhcLht5o72NRHtL50+3UP9CW9mc5TMMx3XgVNdHDHBw1wcNcHDXBw1wcNcHDnAcB4gtK2zJQI+WE788fbqVF2xrlUYgQf10loStMuMcc0nykew21Xo+cPt1J675HIYp7OaSfaKUjfpO3d6eT29dBxBOIMjbcTy09W1Hzh9umZ7CUe0+RQoyf+PVqabZSeWAex/5w+3TfPYzyqFI9oZkRPT/3vrw314b68N+fG/Pjfnxv743+QCqD4i1BLhisf2RywvcfOH26cn2/KoUj2dQfuXy7eXaKVJyorP8AZHLC9z84fbpyfb8qhTFW08z2n0togOWS61/VHLB9z6yH247UzVTSDVqmYYa1XII6dXokw/SbqZUeWnVijV09o2l61PURwp35a4Py1QLVpiFqSG+ZGSiE3Uyo0v8ALVD8tUE6tETUkJ40LS4kVCRukL8tUPy1Q/LVD8tUI+qVOyOqfbpyfb8qhC8Vt9W6bcjhZDhRDhRDhRDhJCZTsDPowf8A3rX9UcsH3PpLkIix6pUXqg+EMuOBSVJMaXrClqFY8q3/AELt0tYrUmqZFjTx7aMNS+aBMOmSkqT6aYqyo74rPlhsP1o9Vepz0d5Ehmv+H9NhjYYp5Hv/AFT7dOT7flUIfifTaEz30J4lIHEpI4lJHE5I4nJD8x59Pox/et/1RywPc+mtZf8A5DTFJTOWhCW0z4LE5qfGVDltrNtyI7ni1jyrf9K5XSgmuu1FSoOpZbS4cluXHFYrjNPN/UdQcMq5USOFqiS2qDMZnMalnvU+JUJr094Ra9Nix6Q+uVTtS+aFJ8ZLisy2qhH3SaR7DgO54VZ8sI6U4JMGNJTqCknTXhouWZpr/hxpXzNqRakWl1j7dOT7flUInido2+jNNYNvhkYcMjDhkYcMjDhcYVKAyzG9I/8Aet/0RywPdempl31oafaJqj+k+ixJz/4zAEZlMdiseVI9hxqbOqRzqdJgmNFSDJ6pyd0gLUa10qlv1JcvTEllkaXlqj1TUcB6oRajBdgPiJQJkqPSI64tO1L5oUnxh/oVp9MmqClINum1nywj+3Gp2Seo40ouytV/w4oElqHUvyOnD8jpwgVWLOc6p9unJ9vyqEXxHqTq0lmdGZ0Z3RndGd0LdWv1je4rf9EcsD3XpqItlZFGVdSuWseVSW04zSWWNQMpepA0h5hxtDqJzlIhBOpILAXqxOxR7VUjyg1n5Qad8KNS+aDGoZrLMytTpaBQoCp84hWfLCP7cV9VlHGmC21uv+H5NFeR6p9unJ9vyqEBN1L9Noivw0sbzDG8wxWXIy08sBN8yt//AGjlp/uvTWDBt1MaPmk7C9K/VHXKnv8ALFKJZU2seVb/AKF2rPihpHzGpaiqBCUZqOm0iVUCLSsoKK1VI8oNZ+UGnfCjUvmg1RJ7rZafqJiHpZ9SoURmEyKz5YR/bjWM9OEaLYum1/w402y2/VeEwBwmAI0GNGX1T7dOV7flUKR7KpMYZHptG3k28lBjHtrn9EctP916aip+/wAEyNJx33I7rGq3UoqOo5MtsUKnqnzS/RVjyrf9C7VnxQ0j5jXCD2DTlbjRYdT1JHSwKR5Qa0TsqQoNejR4EV9EljUvmhSfGclZ8sEapkJRJ1LNdStRrU02p1yiQSp8Gv8AhxpTzX+A+3Tle35VCj+ylsJfbkwHWjMjIfv0/Y/fLBpilmygkJrv9U8tO9161ugNzTl06XEUEoUs6bp+VKOBDZgsCrsunVG2Hry7VcjOl7u8NJtOIq9ThInxJ9KlQlkhRnRaC7Iccju5KSy6VTGoqWdRjPxno6hp3w2o2XFVnd3hSi2U3krDLp1Xd3hu7wTFkKEOgzpB0ejMU4hXSNVI3d4aWacTWP8AAfbpyvb8qhRT2xAaCMGyQwEMBDAQwEH4LbpSqSpIcbW2YpjmWMK2f/sp5ad7vlVHZUENoR1CQkuZSSUN3ZBfr4I+3Tk+35VChu7HOgaSMPRkOFIo6DFOj7uyJ7mWYnlp3u/nD7dNZbUn+uUw2s2nYz6ZDXR2DYKnLJhpILlphbZfzh9upNRjk8piO+5GXHqbLgJ9oxmaGZoZmhmaGZoZmhmaCpLCRKqqSJRqcWRc1HR+/nD7dSsNc+wbBaLRsFotFotFotBECLnhNYo/zh9uo82TrbqDbc6GwbBsGwbBsGwbOhTmMz3zp9urUouVP+ZltTrkZkmGvnT7dafBvBlsP/Gy0p5cOMmOj54+3XlQ23xIiOs/4S/YjU9xwMMoZT8+fb/C9CZdC6UQ4UscKcHCnBwpwcKcHCnBwpwcKcHCnBwpwcKcHCnAVKWG6W2QajtNfQj7fYz7fYz7fYz7fYz7fYz7fYz7fYz7fYz7fYz7fYz7fYz7fYz7fYz7fYz7ZnBmcGZwZnBmcGZwZnBmcGZwZnBmcGZwZnBmcGZwZnBmcGZwZnBmcGZwZnBmcGZwZnBmcGZwZnBmcGZwZnBmcGZwZnBmcGZwZnBmcGZwZnBmcGZwZnBmcGZwZnBmcGZwZnBmcGZwZnBmcGZwZnBmcGZwZnBmcGZwZnBmcGZwZnBmcGZwZnBmcGZwZnBmcGZwZnBmcGZwZnBmcGZwZnBmcGZwZnBmcGZwZnBmcGZwZnBmcGZwZnBmcGZwZnBmcGZwZnBmcGZwG85s/8QAKhEAAQMCBQQCAgMBAAAAAAAAAQACAwQREBIhMVETFDNQIDIiUkFCgHH/2gAIAQMBAT8B/wAzOqGjZdw5CVyDiggwIRBdBqNNwnNLd/Tk21KlmL/+YBNCaE0JqCGDmhwsVLEYz6apf/XAKNl0GAYXWcoSuUUwdoVbCRmdtkdPSu/I3Vk0KMWCZHkBF1HHkFvjGczQcaltn+kOysrJoUkoiZdOqJHfyutJyutJyurJyurJyqeoLjlcqfxjGr+/pDsrKyaFWfwMO1k4XaycLtZOE+MsNimaOBVP4xjWff0hVlZAKs3GAim5XRm/ZdGb9lI1zT+SG6pvGMa37+lsrIBVg1GAg0+yfFlF8yucGjVU3jGNb5PS2VkApo+oLJzC3dWVsYITfM5UviGNd5PS2VlZOFj8HRtfunUxH1QvbVQNyxgY13k9LZWVk6PMi0jdWVirFZSqelJOZ+3wrXXl9LGb6KysgEAgEGoBAfB7gxuYpzsxufSg2N0wh2yAQCAQHyOmpVXU9U5W7enBI1CZUfshPHyhPHyhURcruYuV3MXK7qLld1Dyn18Y+uqmqXy7/wCsf//EAC4RAAEDAQYFAwQDAQAAAAAAAAEAAgMRBBASExQxICEyUFEiQVIFMIChM0Jhcf/aAAgBAgEBPwH8ZmWRzt+S0bFpWLTMWnaslqygjGEWdoAJNAoLOI+Z34CijcbiERTs1ji/ub5JBGKlOtTzstQ9Z71nOWa5NfivIr2ZjcLQL7S/FIpZ8xwdRTS5rq04dxW9+/ZG7jgyzJKQm2eMeyyI/CyI/C08fxWnj+KtVkwDGxM6RfJv2Ru44LMPU8qi1cQ91rIfK1sPlRSNlFWKRtWEJnQL5d+yN3HBZN3/APVRG0WavT+lqbL8P0tTZfh+lZnxyMrGOSePSVH0C+XfsjeocFi6nj/VROtdD/GobTmPwmNZbfCDabKTkwlR9Avm37I3ccEdoyJyfZRyskFWm+iovqFuaW5Uaj6BfN1dkbuOC0NpIbqqqhtcsPSVD9WY7lIKKXDjOHZMFGi+fq7K04hW+0Q5g5bp0bm7hUKoVQqhUUB3cjfMfV2WxyVbh8fccaCqJrz7Kx5YcQUUrZBUfaKlkxch2dri01CZbfmFqYz7rUR+Vnx+Vnx+Vns8rOZ5WczynWlo2T5XP3/LH//EADwQAAECAgYFCQcFAAMBAAAAAAEAAgMRBBAhMjOREiAwMXETIkFCUWBhcnM0QFBSgZKxFCNiocFDgqJT/9oACAEBAAY/AroV0K6FdCuhXQroV0K6FdCuhXQroV0K6FdCuhXQroV0K6FdCuhXQroV0K6FdCuhXQroV0K6FdCuhXQroV0K6FdCuhXQroV0K6FdCuhXQroV0K6FdCuhXQroV0K6FdCuhXQroV0K6FdCuhXQroV0K6FdCuhXQroV0K6FdCuhXQroV0K6FdCuhXQroV0K6FdCuhXQroV0K6FdCuhXQroV0K6EeaO8h7yHvIe8h7yHvIe8h7yHvIe8h7yHvIe8h9ytV8LpyW5y3OW5y3OW5y6y6y6y6y6y6VvVjh3DPuE3GQUoQ+pXOcT7hvXOsPcE7eZ39im7L3SRtapj4+dtpFaTvdv4qz48dt/EbtfmNs7SrXNV9qvtV9qvtV9qvtV9qs0SpPBGvoH6fHjtdEb3a4iRhwbs5OEwpi1h1phB3x07V3hZrW3W21CelOfOUTR36KYXaej47EtduKLD0axb2fHTtCidZ7u07afzDWl2j46do8+Gv9SpncpQx9SrwyV7+leGSvDJXv6V4ZK8Mle/pbwfotGJzXVQ+Gs346dpE4a44lcmLo2nJvvNUPhrN+OnaROGvpdk1M7SGfGSh8NZuoYkZ4YwdJUqLBMT+TrFZDgj6L92BDcPCxBhPJRT1XVxYP6YO0HFs9NAfpB9+131xKP+nDtDp0l7K37l7IPvVtE/9oNiaUF38tymDMVRoP6YO0HFs9NeyD717IPvXOomT1KJpQT/AC3IOY4OaekVRY+jpaAnJeyD717IPvXsg+9eyD71Dh/pQNNwbPT2x2kThru+uoC6JafBYhyWKclinJYpyWKckYjXzlXD8wULhrNrfGimTWhF8Q8zqs6BVzIb3cApOBB8ahQ6U6Z6jj+KqX6hTeO0ZJxH7Y/1X3Zqiz+X/aqRxH4qmITyPKuc0jjU2jR3TgvsbPqmql+oat1YkS6D1mJkWEZscJhUvyV7itxVHs/5G/nbHaROGu/66gAfYPBXhkrwyV8ZK+MlfGS0Yj+bXD8wULhrNrhUVpsvu/yp0akCcFhlL5ig1jQ1o6AiyOwHsd0hRID97CmvaZOaZhQovztDlS/UKbxXI0cB8fpnuap/qCOAQ/USjQ+myRTY0EzY6rkwOUj/AC9nFc17YY7GtXtLkBSmtis8LChFgOmPwocSjy0i+VoQi0iWkBKwVMgwizQbum1QY0WWm4WyVI4j8VUX0wjDjsDmqNA+R0lMKBF+ZgKpfqGqHzRdClGgsd9ECy2A+6ezwqjUVxu89qpfkqhcD+FuC3BbhtjtInDXfwOo0mbiemaunNXTmrpzV05q6c0YkOYI8d9cPzBQuGs2ukeEh/VVGA6W6WdfLRg/TlKwr/l+5Mgw56DBITVL9QqadGhw9KZtcbEP1MPRB3HoqjUcmwjTCjR+lrbOKLnmbjaSiIMg1u9x6EYkOIyLK3R3VQ2dSLzSFDh0fR0g+fOKEKPo6RE7DUyNC5PQfum5QYMWWmwWyVI4j8VUX0xVSIrLpdZVRmHeIYVL9Q1Q/KKo3aznCqEPmBH9Kl+SpkaOZMAKxXfaViu+0ow6O8lwE922O0icNd/A6kg9wHFYj81iPzWI/NYj81iPzXOc48TXD8wULhrNrpXmqopH/wAxrUv1CgFDhsEmtElSQ7qt0h9Km+QrRiNDm9hX77IGl8oYCURRqK8DwAaubRT9XIntVF9QVM9Mfk1UXy/7VSOI/FTITOT0WCQ5qLIkWTD0NEqmtl+0215qpfqGqH5RVSp/LKqj+E/wqX5NWL6f+7Y7SJw13N7Z6jAHQxZ0rEhLEgpnIlpiT6vZrQh/JQuGs2sRerEbUaM4/uQt3CuJ+mjvbDbzRouXtMb7yqNyhJfoCZKpfqFN41Uv0zU3yFDkjKLEMgexEuMyUXQWgMHWcudGhDNEdiovqCpnpj8mqi+X/aqRxH4qbEZAm1wmLQsD/wBBA0uI1jextpQhUdui381Uv1DVD8oqbQ2GbydJ/hVFjdDGyzVL8lUOHGYHsINhXssLJeywskXQILGONkxtjtInl1xxKPyutG0Mdw8GqFw1m1kMxWc5qINhCbEguLXjpClGozXntDpIw4bRBYd8jbU1sv2m2vKsVL9QpvGql+mam+Qqiv6toqFHpM2aJsdKc05tDnEiGycpAVUX1BVCd0GH/tTKPStJpZuMpzTY0IzY7cqRxH4qovpjVpfqGpreQhWCXStFmhC8Wi1FzyS49JTWQwXOdYAE2H/yG158VS/JVC4H8e4naRPLrjiUWuC5o02+CtB2IdHsb8qkBJQuGs3UMajyhx+nsciI0F48RaKpNaSfBAxRyMLtdvyQhQGyHb21UoiG8jlD1U39qJv+WqlAWnkysKJ9qaXMcBoneE6DE+h7CiIkMlvzttCkGmaEWlsLIAtkd7k6UJ8p/KqKTDeByg6tQMLGh3fHwWjGhPYfEVUbyqkFsN5Fm4eCwon2qig7+TGrSyIbyOUPVWFE+1YUT7VzYEU/9SrYXJN7X2LSxI/zn/KqUAJnQWFE+1Qi6G8CR3j3E7SJ5dfg7U3LdVuXOYCpwTPwKk9pBqhu8KmDsbrM1udChn/quYxreA2ljRrc4ArCh/arPgR2kThrvhnptGyk5oIX7ZLUGTnU8jcLNZnx07QjXa9u8IPZtNFuI7Xb8dO1ePGevpQzxHauf+27xVkVmaxGZrEZmsRmaxGZrEZmsRmaxGZq2KzNSo40j2lFzzNx13v+nx07VsUcD700dO8/HTtSx3Six28e8TN1vx47bTZfH9+7hrd5Qa348dvykEc7pCt900WCZXa7pPx8+4T3P7VaJt7R7jYpxOY1SYO4B9ytbI+C5kQ/VYjViNWI1YjViNWI1YjViNWI1YjViNWI1WxGrnucVzGAdwj3kPeQ95D3kPeQ95D3kPeQ95D3kPeQ95D3kPeQrEfmsR+axH5rEfmsR+axH5rEfmsR+axH5rEfmsR+axH5rEfmsR+axH5rEfmsR+axH5rEfmsR+axH5rEfmsR+axH5rEfmsR+axH5rEfmsR+axH5rEfmsR+axH5rEfmsR+axH5rEfmsR+axH5rEfmsR+axH5rEfmsR+axH5rEfmsR+axH5rEfmsR+axH5rEfmsR+axH5rEfmsR+axH5rEfmsR+axH5rEfmsR+axH5rEfmsR+axH5rEfmsR+axH5rEfmsR+axH5rEfmsR+axH5rEfmsR+axH5rEfmsR+axH5rEfmsR+axH5rEfmsR+axH5rEfmsR+axH5rEfmsR+axH5rEfmsR+axH5rEfmsR+axH5rEfmv/8QAKxAAAgEBBgQGAwEAAAAAAAAAAAER8RAhMUFRoSAwYfBgcYGRscFAUNHh/9oACAEBAAE/IaCUEoJQSglBKCUEoJQSglBKCUEoJQSglBKCUEoJQSglBKCUEoJQSglBKCUEoJQSglBKCUEoJQSglBKCUEoJQSglBKCUEoJQSglBKCUEoJQSglBKCUEoJQSglBKCUEoJQSglBKCUEoJQSglBKCUEoJQSglBKCUEoJQSglBKCUEoJQSglBKCUEoJ0k6eJNt4k23iTbeJNt4k23iTbeJNt4k23iTbeJNt4k23iTbeJNt+EhJZJdRnD9C8TzfyFJKCUkppRTp+w6fsOh7Dpew6XsEzL2jenzRjc9fAe2/AfVEZsv2Afzy4XAmYRJaMuH6QvAG2585ejUTwuyyLikkkkkTJJJJsm1iv4gktlP9/tuc+YuS1GJst7cLY+RgIIIp8LIHixQhDaU/3225rJG3ckPa08hLVY3FjeTfQIaVz9zt2d+zv2d+ztmdkzvmKZbopkjb1spLZsvJ/3zbc2+b+HC3YocibvZ9ihKFhynJdmpfHwT0JxPgetl6Fps1+923N6KuuFxSozeCUoxEIWtYRmZovojEjTjTejDkqulEGOK8DE8EpZpX73bcyZaKSTM3PAxiPMw+3OulkMfwEg23MibFPwuxgk9NSTFsgZNoHJgeg6L2D/AMwP/AHQ+wpUo06X2iLl9I0EZCdg8nZ3vUYkm35373bczceF21Me3V6skkbGxsYbJJJsNYyVXPVG5/I3D8z4/e7bmbyTwOzJajD2Mvd42NjY2NjY2NjZNh2XOT1N3+bCw4PkfHBiYoYMsQzI+2I2ujzP7FbzNbfY/ThMF+TtSpTDCY9DEQuO0CvSfLaLFo6T3FfhYvSrJYc3ToOS6Pz/AMFDf2vImXcdP8kvK83uQsrMvTWdiSqYYTD8jsf8Ox/wvMvtyE57uifchRYJTJTsYikx+JOx/wAOx/w7H/Dsf8PKWgJcac7bczeeF2dnZSSSOJEwuIxAIJZCPGmoJJO4MzffmwuD5/xbeemfXoObpHcO5/tiqVHXZ000kCudw9w7HXvqs73qbEYXly1Aqyn1FcDGGbcr35rO+aLE5qXpph7DvRIsZcavHcrO762dZ7DUY2Sgt3ru81oyIrTDdLEm8FJTCmGKXkdHO23M3nhdnYGRsYREghSH/jSlSkSiSiS9o0JQSSP2GZuFhcHy/i1mDC+j7WNKQzuXF1WhIhIu6xce6mX/ANAnVZMdCQMWTQtX/UR3vU2Iu9be7DZ6adSQlu8FNEEuStV0dj7drA7vMGPtyxkkE/ml/DMgxp/iTku5p4toxkqyt9dDGkPldd27FBa4vDH2tPghYnfNFnf9BsPaq9dUxrBzcHqsthyrhpyiRsXfnB3fWzZadB/n2dxr1GHvHGLarJmS9Dr9G6WKmpqUalFKKdzttzN74XwUmJIKcmAqMrsrsrsqsaNC3OQkkbvMzdLCfB834tdIzp9EsQlDmed61xlCNdzB0xz/AAJLg73qOSmKcjnCObcGybHArlvWzDOd0auZ3UiFuP2OyM2eQd3D3YskTb0skRTz9zHYLcXQy4xXHKO1ZdfSbg/gwFgklYnfNFnf9BkjbcJDjJjNqko+rM90fY7vrZ3TSyQ1gek/5NjU2Dv3P6N0saZWG0pxVqSUnrVN1dzttzN54XbzJI2dCIJisSsR/wClKlK1EELfMJJG7TM3CwrJs+b8WtnZy2ViMKfTxd71OojgQ2RokKJmTpO9Y3rfCOD/AMUymSiT/wA4idu3LgGNMr124F18SmDuuvBo3L5Wd80WP8hZsiMwulkdkukqykaeoiSSWCO762d00sW1m3rrHx9Xebpw9l0c7bczeeF2WKMUUbJGI6KkrHJUUVBGdFj+Qkkkkkcv0P2N2sLg+X8Wxsubnqrn9WIySSmr/wC2qmC5pJtYu7rZ5IG3OS22pO96mxGF5Ha9LO+6Co8pszY0o1Lbd7GMqhuhSRp8ml9HXdB3XXg0bl8rO+aLGekzsZP1GUXfP+hnse+T6EkUY6tq3Z3fWzumliqGggyLBWPcrB31/wAI3SyVhDhYW84jOkk5c7bczduF2LxDnUu4gbG7SSSbEkkj3ci9m6WFbJ8/4tYs77qvUWW2IaeQxq8oEhC9d9IYq8sXplpNjnNP5XT1ESEkJHe9TYjC8jtelnfdDQh791jC2saoJOch+aNo7dTfiNy23izuutjsgezWOQl0mBJnIbqTlmoO+aLO/wCnD3fWxeGJWIN8M7vsGNgpLZLYzKWYNlyf1Ixun4c225m7ciaWEnsPz6hi9h9CD6ojQyHoyNDGtDH1JJMXceW2MWJCCJQksjcPni/L+OBjDWj3uvUWDFlSeqGmsUKDWySRvfORe8hCWb22Laux6uQtNqdFTMYHkKdbFpLO4qQxSe2pYFxvN68cpmVz6JCRDoSMOYrjoRoLpvZF4Tjkrba2OESmcsmYcVjlEQy5P2ljsicG1rAVIMSGklT8uFqORtNfeVIVINIYdCTuo/WxM0RXow8mVjTTGhJSVIYvJbUsPwdtzN24XYlVqK2GskdN7HTHTR0xGOsReScB3XnmPJWKY4u952Tdoni/I+OF34jCWnVGbOAuXiMJReqXEihJo1IkOUp6wESQiS0X6LbcxJQtfC7CMjeTYwh50CaHLb3TFDcLb5iyf0uh6cT53x+923M6nJovGtOFDFz5GQXPFaPlNGJFgOTrqEtFqJxGQMk3+923N0XuPXhYp65BgFyT7D3E0sLylIlIlIlKlKlKlKiWV/SNjmjXIaGxjdkuGV3BKP73bc24Uw45h8mQK2i4pvxfvTbc3AMQXpDI44I5IBFs8ECnOfXp++23Ouuub1oMHf8AjITkPVier/fbbn3zUNUY5JDWK/ERPpBCle/v3bfgKZLpfsYvbL8FG0JLeSHq+1Zc/rN5vwBtvwcRtPVro3gvJI5rvaZSWUllJZSWUllJZ3LO5ZSWUlncs+kkzZFuFN8a5+Att4k23iTbeJNt4k23iTbeJNt4k23iTbeJNt4k23iTbeJNt4k23iTbFUlUlUlUlUlUlUlUlUlUlUlUlUlUlUlUlUlUlUlUlUlUlUlUlUlUlUlUlUlUlUlUlUlUlUlUlUlUlUlUlUlUlUlUlUlUlUlUlUlUlUlUlUlUlUlUlUlUlUlUlUlUlUlUlUlUlUlUlUlUlUlUlUlUlUlUlUlUlUlUlUlUlUlUlUlUlUlUlUlUlUlUlUlUlUlUlUlUlUkl8k//2gAMAwEAAgADAAAAEDDDDDDDDDDDDDDDDDDDDDDDDDDDDDDDDDDDDDDDDDDDDDDDDDGPPPPPPPPPPPPPPPPPPPPPPPPPPPPPPPPPPPPPPPPPPPPPPPPPKPPPPPPPPPPPPPPPPPPPPPPPPPPPPPPPPPPPPPPPPPPPPPPPPPKPPPPPPPPPPPPPPPPPPPPPPPPPPPPPPPPPPPPPPPPPPPPPPPPPKPPPPPPPPPPPPPPPPPPPPPPPPPPPPPPPPPPPPPPPPPPPPPPPPPKPPPPPPPPPPPPPPPPPPPPPPPPPPPPPPPPPPPPPPPPPPPPPPPPPKPPPPPPPPPPPPPPPPPPPPPPPPPPPPPPPPPPPPPPPPPPPPPPPPPKPPPPPPPP/AKbQiTZbHDLzzzzzzzzzzzzzzzzzzzzzzzzzzzzzzyjzzzzzzz6Z0OweispWd7zzzzzzzzzzzzzzzzzzzzzzzzzzzzzyjzzzzzyPNvwa3944pkv7XzzzzzzzzzzzzzzzzzzzzzzzzzzzzyjzzzzzjDHtvLDzyx0ZZ3fzzzzzzzzzzzzzzzzzzzzzzzzzzzzyjzzzzyrXwy/r8ynlbUoL/wA8888888888888888888888888888o88888osKzeyCeifbMSlW480QoM88888o80os4MkYsIU888888o88888p1iO8KmUeshNsjf4o8AgUUckIkUIUsIosYo8wk888888o88888pO/4k7s5GGdKNb2oM88o808AIU88UMwI8sY84g888888o888888q80VEKwUL4OaN3808As0c0wccY8c88os4M008888888o8888882QIyTHfsAMzHI08sM88888s88sc8888888888888888o88888+S3IQIQ081/EuTX88888888888888888888888888888o888888U2qaPQTrHYsH7888888888888888888888888888888o888888thuMFgykIb6on888888888888888888888888888888o88888888j0xMsfOYJ98888888888888888888888888888888o8888888888888888888888888888888888888888888888888o8888888888888888888888888888888888888888888888888o8888888888888888888888888888888888888888888888888o8888888888888888888888888888888888888888888888888o8888888888888888888888888888888888888888888888888o8888888888888888888888888888888888888888888888888o8888888888888888888888888888888888888888888888888oDDDDDDDDDDDDDDDDDDDDDDDDDDDDDDDDDDDDDDDDDDDDDDDDDf8A/8QAKBEAAgEBBwMFAQEAAAAAAAAAAAERMRAhQVBRYfBxkaEggIGx0cHx/9oACAEDAQE/EPbK3F7LtvklEhgeL1Ryo3UTtR2MbwsZOhcAYwrghRgywQUQSIUkAwdMmlcfkSEGvdZiSVBOqCWJDmg7ECXOI2h5Kza2IheHypXRJWk+hNpyjdkggk4xvyStYVgmH4G0zXS4Wp7m57m97iVj7mOvBiSEEFPp+5JWsKwO5woEhNU/ZHA0cTRBmGSQaihBBT6fuSUOwhfC9sSIajzZxNnE2Rl5YtwTnuRZR6fuSOllWC89hIU0fPka1Jc6m8OXUmVbi+b7IIKXT9yYrKvVKg2hYEwhBAkiugnl+yCCh0/ryairMSSSUqX40l1xQOZaEEFLp/XkqkpEUIl1RvCEtDYNoTaJiciNGLEiCBTksElksTYIL1hREhISHqmhz6zyV8QSz6QAkJCQkQMlbISNGPnfJ3sglXJ2HAieCxcLFzsXGyL/AH+CW427IZw8LRU92P8A/8QAKBEBAAIABQIGAwEBAAAAAAAAAQARECExQVFQYXGRobHR8CCB8YDh/9oACAECAQE/EP8AMoK0TOsr1gGqse/5xDmI8xKMx6SnRiJr0c0GbANT2eEYx/AOBIDrLnRip/Vg4VVNATv+k70X3whyOTElStUcuikTsRwZDYymVAqZ9plWX4DWcGjlKlQV0Rn8bFiX8tw2s3jDg+UOL5Q4HlL9nlD2jc4gkkrop64lRjBe8hCqn0MP4GH8TLrWQWtxhhXRn1xHEXISNDf9J9Q+Z9w+ZlBW0qs55A4CpUFdE+sMWUYhKqXfvhABhe9f8IcTygChUq1oD7dIz64xYzeaUfvaVZJCuYVzCMkePd6ppXBDKpU9ronrjFjXt84NS0tG9vhzPvhNeTkzPn3jT7zXhcozjoeHRBpuCJ3xG7QiVMTtTtTtQbaIQqMCRlleOijf19mKxixYsXBIkBlESt+ik9Um43cjGMYxjigLZf2Oj25pmVX7D4h/UjAyMDittC3O0OP9Y//EACsQAQACAAMHAwUBAQEAAAAAAAEAESEx8BBBUWGhwfFxgZEgMGCx0VDhQP/aAAgBAQABPxDwmeEzwmeEzwmeEzwmeEzwmeEzwmeEzwmeEzwmeEzwmeEzwmeEzwmeEzwmeEzwmeEzwmeEzwmeEzwmeEzwmeEzwmeEzwmeEzwmeEzwmeEzwmeEzwmeEzwmeEzwmeEzwmeEzwmeEzwmeEzwmeEzwmeEzwmeEzwmeEzwmeEzwmeEzwmeEzwmeEzwmeEzwmeEzwmeEzwmeEzwmeEzwmeEzwmeEzwmeEzwmeEzwmeEzwmeEzwmeEzwmeEzwmc7Dd/JOufknXPyTrn5J1z8k65+Sdc/JOufknXPyTrn5J1z8k65+Sdc/JOuf+JcFb1RFyz6v0lnVPRiw/4v+zwH+zxH+wXL4P8AYf8AE/2eL/2eD/2eH/2eP/2eH/2ZkPqf7N+vURuk+BF/gXXP/BnEwSorgbKr9Es+eC4HtLlwgwcYMGDBgxQZdQYg2NMSB/XSVFT8XF7xCWNn4B1z77e8spxUeLC4DAYMvGXBlIYoQQbASYiEEDLQYMSNyK3+iGlNYn+/1z7zSXkvxXCO9VgbhwNgwalwSAR556oDjA8YHjA8YHjB4wlzhO+WkuXBlwsqp6HMhJBWJv8A97rn3VLAWruIji70XH32qLDE58p+aTqOftLIvwtdp4KPFR4CPAQf8mAf5xR/GL6w4F6z0RSwfRyZYmOwDN+xc4IOLf1/vdc+7X0HprcM9pLlRKLnKDBA4/xCAQGAG77JN2m4fqFVSpM3wf7KBjLyDhLg1K1jiMyEbvR3/wC71z7qmu+nZ9Zey4sw5hHOtyXcfP6g5Ca9ZXRN3fNzbqqBD851NVzg9+eG8Z3z2P1MtBMv7M5yvnW+W7Cy4MtNj7A/7vXPuEzki9iKqtZLzZe1YTCYL4YO8gd1+l+yRlVr6mHYl4QeEGpcuLwCHxj2/wB3rn3EzgJ8bbmUxEecBeb06kJqlooCIBj3/Qj0gOB/Ka+7Qeq6TQr9R1t+onoOkT0HSO41vKHx3Ah+JgX2sxvXdDEmB+LjAIYIQMuK/R/R/wB3rn3NX4fTkizmqcYtMWquqoy/VVFh54y03xBtgzj/AHI6kMIg4bLgx/D+z/d659zT+GxbL2PDYBzL4uO4XUu9djzfsKqrLBsaFzzBsYWBEwOy8Y79P9n0HvfJj0N68iG+1RffSiveo5b9gPXRilXEo3qo6RmAAul4ZL6NPKGOwXkhpXVdZZXMrtfC2XzQv7aVCebPCogWhOJsGXgSdhktWcsKO5d0U2L305pbO/cPWbEXora9L3CFK8XsDkiZ7CQSWlcLrLlPPJ88nD7xi4nWVkNW/Per3CHYsPBxE2GObCqqmF01nPPJ88nzyfPJTBVAnAWrPn97rn3NP4bL2MyR4MVPFh42MmFNYkLLq7ju/j/2Kfw/2P8Azv8AYv8Ay/2Lfyf2YS2N+pQwb5xlmpx8CKoB4EWBLly4sjh+zacVZt63DirQesflgYxOGG/id+xIJZoJ8ERn2bUezEgpExE3QapJfUF3OeBg+3DZqPHNS4k6N9u68qnC+VNHd43d2Ja/QcCozZInEanN+ZXXYfX7WWuFcEtJuweOzW+PZ5VEVBHnseQtjKN/7Tfvg+A14Jk8EySaVxNiNIuAXPNJ5pCqmG+feOufc1/hL2LLqLCPBjrV5x20esBRLRzg8pDLHWH6jANEdpnWVpAu66zjLOvNyaFxI8CLCXLlxfF+zamlUMc1wH0pe5sCuTJFI08gl8bIbJqeDkERiqCA3wPTKObgIlD4+4IxdwFUosZQZWHbkFOs1HjmpcSUnIt1vLBBGjGvmLscbC72qLqpoIA40C/UnIekJvDcjgmxNeOwV+XA9DH0j65cBYHrZKt5ZZ8RaRdV+cRG3onvOFPTb8G5gEfvRxWXqENLwtGiph7tjGpmNFri3jisd4J8QsYG7Lbw0nhhO1QSt9wPMj9ryM81e6IhiMhuTKP1jwN9bmt8ex7KLuvBD2ooZ5oGIxAet2yVacccHeemxulIFyLROV292aVxNhskwUszTxeeLwFENMkP3uufc0vhLlsx2ZZlY61OcdgcdXUbkCmg2bq3R+jQiyiyYrr8mWQrHfjGWby1Uj1e8iwJgS5ctiv0f2bb2WcgHcXsNQDz0/o2iyMVUZLKzmkfyI4h5IMrd81HjlCtIXxIS6667bS5+0IU5AGm4GF8tj6kiHBRR6ifEpwFSXJXcEXaFG1G1YHtBdS7IwLXPCMZOrIFuKxeWERFEpIbHZjsFR94p7LMK6sM4LBpxtJh5A50UMaMcWxCrW+oFMTmJi1bnRZwffbw0nhglhWq0Bxgpql5BFPXF7wzgu0eOClrrNb49mj8GxyBt3BxOrYabC3iUOomlcTY5oVrFQwOc0N2mhu0pJNWlgu04p97rn3NP4RznrMIsWEys0XnHDHn2JAUyGD4Y6o/cdWfuaJfuOvv3Edd1gUabBAfMZZtPVSK9JiRYEWBL2Lj+P8AZtIrYJvgtsS60XuAep9Wo8cozBL5MHo3lFBpgYU7TEVE+E99jADgF+EoGDS1Gyx5ylcY9ABh71KPsh5ytBYgyBLE/UVxQvKtuprfD9h5o4ZmKHtFFtx0JKMXgpinK62CK5uNC3j40o9+EFsAoDcTW+PZo/BsaYBzfFA/eyoi2fkEdK4n09R+89c+5r/CLFlxiwm9AYsD6txBRwTCOyPcQVjCxu+e00l0AZPWBwRhd1GWWWWQEvE+mJ/U0jjFgRYS5eMuP4f3bSAgXTDLPi3vsGGUtxdYnokfbYoCuBKWbgXN4pzY8pprvBRsZiCtcVxmo8c1LiTo00/j25AqUpWkWfPEDmx+OFyjvVmNeBP3gwVfQlgKC3/gREEVWm+mppfD9h5o4VE2HULGnghXN7xkEILdRuF1T1xmNRdZ+8C7Nb49mj8GwE4y7zTc1brgc9ir+WV39PmaVxNjeig2kaba1wASQra66H3uufc0nhF2LLmSOGjx/dH5jqVgLn7HarDzRlll5oy44yhAEbzM0HzMB6rIsosIMHYXx/s2iVXebrouoRgZBqUZiS6upsfR4nJgympX6z+hEA8tns7Qo9Ai22wWEAjAOJfiivl3QQggAyAmo8c1LiTo00/j25JGKyO4dj5B+NjBhaCRDSxF+JaZ+QBWRaNxXvGcWlrxZpfDseQ0Q7rsnU+dl0t01UOIS69olpD1JaZOJlt4aTw/TrfHsBuAW5Arjyh+CqU05I16hE+KUId6ucOuUa0botxYO3IsvgZHpzmlcTZovF/4eufc1nhHZctjFMegxmamQma4nONZHIsBzzfETBGYgx/4Uf8AnMf+Wz/i2NGgjzjDBYAtcAgeJtifK7jrAdGCoHAiw9dI8CDhBlyyL4/3fQQmrDReNMupvilXq7zRcRCkHmRKyUNS+hFmtHBv5PdogGN+Tfk3uxaI6ES+I1BOgGNzzlOnQBopWq+ATTfaBP544cyS2I1IsGR3N4sKPHGx8bMvRphRSaEqvpGgZiizE3hxL7QCcGCura3RyIAECuK1sVRQnQ2Y7shHic4lhKU29HJ9oWVTfpAhCNsGVkspRwEJpPtC5pgpGuCfS+UVaC+I1NN9ppvtAbA0Cu0X0RxeA5Z3xBwyCv5zcOebsKN8slsyCab7QWjBIMe9P/D1z7ms8IsuXjLmTOZYVniseoPeJZM5CN2t6k8CniSeLix2SNUVYYA9ExiTufkvtk+YxHt1XmKjY4zGNKelg9SGUMl3j7r+TIQZcuXH8X7vpAEAjuYvSsbe6k0HbwPtoCkE4M5FhI/VyPGh1nIsK/8AUGkOAFB/hdc+4xS1/Xsupdy9gXESqjmJg9K+PqNoNBERTckilvvn/c+Y3WmrCtW8oZQKIBzgK/dw0QZcuXH8H7v93rn3EEz+cIFXNIy9u6XETOhjg8R5MuvhT574ftZgEyBANqhZtmu0e7c2GiXLl47EAYPfFd/93rn3WpqS9DFsuXtXkwZhwxRcE7xe9OJnvL+qhZE3n9pojvNEd5orvNBd5oLvNBd5rbvHIg5j8DHXHDCekZsfLF5plBcwEuXCXhEGYBObi/o/3eufdd4wBwzH9/SxIaS9yjyx5Nm3CPLPTPTK8IHCCbpRKQYsGXBvAlQ6P3HR/u9c+6WmWvg7mYipnPn9LEvOOKJ2mCUlICUgIAyhBo2Ll7HuRx0wW6Ar/d6595cT4YPY9SIoCkzHZcuX9Ts3/SMuXLlxR6vYOLygZWmO/wB8/wC91z751gyjA5znGiKpCkZey47b2LLl7Lly5cuDLjXUzdw4rMGIcQxeRy/3+uf+BVgLAc/Rvj85ZBfu4S5cuXhsGDhF4Qyl4xZcuXLlwS5lAWstGbGnK5G73gE2+MU4r+Adc/8ACgEQR3MSHXfX/kSUHgP6TOqcymiO00R2mJqPiaA7TVnaa87Twv8AE8L/ABNKdppTtPC/xHOEOai4um4BhI5Q2vd/AuufknXPyTrn5J1z8k65+Sdc/JOufknXPyTrn5J1z8k65+Sdc/JOufknXPyTrk193mvu8193mvu8193mvu8193mvu8193mvu8193mvu8193mvu8193mvu8193mvu8193mvu8193mvu8193mvu8193mvu8193mvu8193mvu8193mvu8193mvu8193mvu8193mvu8193mvu8193mvu8193mvu8193mvu8193mvu8193mvu8193mvu8193mvu8193mvu8193mvu8193mvu8193mvu8193mvu8193mvu8193mvu8193mvu8193mvu8193mvu8193mvu8193mvu8193mvu8193mvu8193mvu8193mvu8193mvu8193mvu8193mvu8193mvu8193mvu8193mvu8193nKu6rn//2Q==;" vertex="1" parent="1">
          <mxGeometry x="480" y="253" width="115.55" height="65" as="geometry" />
        </mxCell>
        <mxCell id="gQkTm3h-wOil9FjOjSS_-43" value="&lt;font color=&quot;#cccccc&quot;&gt;&lt;b&gt;ChatPDF&lt;br&gt;API&lt;br&gt;&lt;/b&gt;&lt;/font&gt;" style="ellipse;whiteSpace=wrap;html=1;aspect=fixed;fillColor=none;strokeColor=#CCCCCC;strokeWidth=2;" vertex="1" parent="1">
          <mxGeometry x="635" y="245.5" width="80" height="80" as="geometry" />
        </mxCell>
        <mxCell id="gQkTm3h-wOil9FjOjSS_-44" value="&lt;font color=&quot;#cccccc&quot;&gt;&lt;b&gt;인증&lt;br&gt;관리&lt;/b&gt;&lt;/font&gt;" style="ellipse;whiteSpace=wrap;html=1;aspect=fixed;fillColor=none;strokeColor=#CCCCCC;strokeWidth=2;" vertex="1" parent="1">
          <mxGeometry x="948.57" y="465.5" width="80" height="80" as="geometry" />
        </mxCell>
        <mxCell id="gQkTm3h-wOil9FjOjSS_-45" value="" style="endArrow=classic;html=1;rounded=0;" edge="1" parent="1">
          <mxGeometry width="50" height="50" relative="1" as="geometry">
            <mxPoint x="840" y="240" as="sourcePoint" />
            <mxPoint x="877" y="240" as="targetPoint" />
          </mxGeometry>
        </mxCell>
        <mxCell id="gQkTm3h-wOil9FjOjSS_-46" value="" style="shape=image;verticalLabelPosition=bottom;labelBackgroundColor=default;verticalAlign=top;aspect=fixed;imageAspect=0;image=https://tech.osci.kr/wp-content/uploads/2022/05/%E1%84%89%E1%85%B3%E1%84%8F%E1%85%B3%E1%84%85%E1%85%B5%E1%86%AB%E1%84%89%E1%85%A3%E1%86%BA-2022-05-03-%E1%84%8B%E1%85%A9%E1%84%92%E1%85%AE-3.57.02.png;" vertex="1" parent="1">
          <mxGeometry x="809.56" y="478" width="118.05" height="55" as="geometry" />
        </mxCell>
        <mxCell id="gQkTm3h-wOil9FjOjSS_-47" value="" style="endArrow=none;html=1;rounded=0;" edge="1" parent="1">
          <mxGeometry width="50" height="50" relative="1" as="geometry">
            <mxPoint x="759.56" y="279.5" as="sourcePoint" />
            <mxPoint x="840" y="279.5" as="targetPoint" />
          </mxGeometry>
        </mxCell>
        <mxCell id="gQkTm3h-wOil9FjOjSS_-48" value="" style="endArrow=none;html=1;rounded=0;" edge="1" parent="1">
          <mxGeometry width="50" height="50" relative="1" as="geometry">
            <mxPoint x="840" y="318.5" as="sourcePoint" />
            <mxPoint x="840" y="240" as="targetPoint" />
          </mxGeometry>
        </mxCell>
        <mxCell id="gQkTm3h-wOil9FjOjSS_-49" value="&lt;font color=&quot;#cccccc&quot;&gt;&lt;b&gt;학습&lt;br&gt;통계&lt;br&gt;&lt;/b&gt;&lt;/font&gt;" style="ellipse;whiteSpace=wrap;html=1;aspect=fixed;fillColor=none;strokeColor=#CCCCCC;strokeWidth=2;" vertex="1" parent="1">
          <mxGeometry x="948.5699999999999" y="577.5" width="80" height="80" as="geometry" />
        </mxCell>
        <mxCell id="gQkTm3h-wOil9FjOjSS_-50" value="" style="shape=image;verticalLabelPosition=bottom;labelBackgroundColor=default;verticalAlign=top;aspect=fixed;imageAspect=0;image=https://a0.awsstatic.com/libra-css/images/logos/aws_logo_smile_1200x630.png;" vertex="1" parent="1">
          <mxGeometry x="624.52" y="537" width="100.95" height="53" as="geometry" />
        </mxCell>
        <mxCell id="gQkTm3h-wOil9FjOjSS_-51" value="" style="endArrow=classic;startArrow=classic;html=1;rounded=0;" edge="1" parent="1">
          <mxGeometry width="50" height="50" relative="1" as="geometry">
            <mxPoint x="580" y="563" as="sourcePoint" />
            <mxPoint x="630" y="563" as="targetPoint" />
            <Array as="points">
              <mxPoint x="610" y="563" />
            </Array>
          </mxGeometry>
        </mxCell>
        <mxCell id="gQkTm3h-wOil9FjOjSS_-52" value="&lt;b&gt;학습 평가&lt;/b&gt;" style="rounded=0;whiteSpace=wrap;html=1;fillColor=#dae8fc;strokeColor=#6c8ebf;" vertex="1" parent="1">
          <mxGeometry x="230" y="250" width="90" height="32" as="geometry" />
        </mxCell>
        <mxCell id="gQkTm3h-wOil9FjOjSS_-53" value="&lt;b&gt;학습 통계&lt;/b&gt;" style="rounded=0;whiteSpace=wrap;html=1;fillColor=#dae8fc;strokeColor=#6c8ebf;" vertex="1" parent="1">
          <mxGeometry x="460" y="156" width="90" height="32" as="geometry" />
        </mxCell>
        <mxCell id="gQkTm3h-wOil9FjOjSS_-54" value="&lt;b&gt;학습 보조&lt;/b&gt;" style="rounded=0;whiteSpace=wrap;html=1;fillColor=#dae8fc;strokeColor=#6c8ebf;" vertex="1" parent="1">
          <mxGeometry x="360" y="155" width="90" height="32" as="geometry" />
        </mxCell>
        <mxCell id="gQkTm3h-wOil9FjOjSS_-55" value="" style="endArrow=classic;startArrow=classic;html=1;rounded=0;entryX=0.5;entryY=1;entryDx=0;entryDy=0;" edge="1" parent="1" target="gQkTm3h-wOil9FjOjSS_-10">
          <mxGeometry width="50" height="50" relative="1" as="geometry">
            <mxPoint x="677" y="530" as="sourcePoint" />
            <mxPoint x="725.47" y="475" as="targetPoint" />
          </mxGeometry>
        </mxCell>
        <mxCell id="gQkTm3h-wOil9FjOjSS_-56" value="&lt;font color=&quot;#cccccc&quot;&gt;&lt;b&gt;학습&lt;br&gt;보조&lt;br&gt;&lt;/b&gt;&lt;/font&gt;" style="ellipse;whiteSpace=wrap;html=1;aspect=fixed;fillColor=none;strokeColor=#CCCCCC;strokeWidth=2;" vertex="1" parent="1">
          <mxGeometry x="836.1899999999999" y="577.5" width="80" height="80" as="geometry" />
        </mxCell>
        <mxCell id="gQkTm3h-wOil9FjOjSS_-57" value="" style="shape=image;verticalLabelPosition=bottom;labelBackgroundColor=default;verticalAlign=top;aspect=fixed;imageAspect=0;image=https://react-unity-webgl.dev/images/logo.svg;" vertex="1" parent="1">
          <mxGeometry x="510" y="670" width="35.09" height="40" as="geometry" />
        </mxCell>
        <mxCell id="gQkTm3h-wOil9FjOjSS_-58" value="&lt;b&gt;패키지&lt;/b&gt;" style="text;html=1;strokeColor=none;fillColor=default;align=center;verticalAlign=middle;whiteSpace=wrap;rounded=0;direction=south;" vertex="1" parent="1">
          <mxGeometry x="570" y="635" width="50" height="40" as="geometry" />
        </mxCell>
        <mxCell id="gQkTm3h-wOil9FjOjSS_-59" value="&lt;font color=&quot;#cccccc&quot;&gt;react-unity-webgl&lt;/font&gt;" style="text;html=1;strokeColor=none;fillColor=default;align=center;verticalAlign=middle;whiteSpace=wrap;rounded=0;direction=south;" vertex="1" parent="1">
          <mxGeometry x="565" y="667.5" width="125.03" height="40" as="geometry" />
        </mxCell>
        <mxCell id="gQkTm3h-wOil9FjOjSS_-60" value="" style="endArrow=classic;startArrow=classic;html=1;rounded=0;entryX=-0.003;entryY=0.403;entryDx=0;entryDy=0;entryPerimeter=0;" edge="1" parent="1" target="gQkTm3h-wOil9FjOjSS_-4">
          <mxGeometry width="50" height="50" relative="1" as="geometry">
            <mxPoint x="740" y="548" as="sourcePoint" />
            <mxPoint x="790" y="498" as="targetPoint" />
          </mxGeometry>
        </mxCell>
        <mxCell id="gQkTm3h-wOil9FjOjSS_-61" value="" style="endArrow=classic;startArrow=classic;html=1;rounded=0;" edge="1" parent="1">
          <mxGeometry width="50" height="50" relative="1" as="geometry">
            <mxPoint x="440" y="560" as="sourcePoint" />
            <mxPoint x="470" y="559" as="targetPoint" />
          </mxGeometry>
        </mxCell>
        <mxCell id="gQkTm3h-wOil9FjOjSS_-62" value="" style="endArrow=classic;startArrow=classic;html=1;rounded=0;" edge="1" parent="1">
          <mxGeometry width="50" height="50" relative="1" as="geometry">
            <mxPoint x="440" y="688" as="sourcePoint" />
            <mxPoint x="470" y="687" as="targetPoint" />
          </mxGeometry>
        </mxCell>
        <mxCell id="gQkTm3h-wOil9FjOjSS_-63" value="" style="endArrow=classic;startArrow=classic;html=1;rounded=0;entryX=-0.003;entryY=0.403;entryDx=0;entryDy=0;entryPerimeter=0;" edge="1" parent="1">
          <mxGeometry width="50" height="50" relative="1" as="geometry">
            <mxPoint x="740" y="688" as="sourcePoint" />
            <mxPoint x="782" y="687" as="targetPoint" />
          </mxGeometry>
        </mxCell>
        <mxCell id="gQkTm3h-wOil9FjOjSS_-64" value="" style="endArrow=none;html=1;rounded=0;" edge="1" parent="1">
          <mxGeometry width="50" height="50" relative="1" as="geometry">
            <mxPoint x="760" y="545" as="sourcePoint" />
            <mxPoint x="760" y="280" as="targetPoint" />
          </mxGeometry>
        </mxCell>
        <mxCell id="gQkTm3h-wOil9FjOjSS_-65" value="" style="endArrow=classic;html=1;rounded=0;entryX=1;entryY=0.5;entryDx=0;entryDy=0;" edge="1" parent="1" target="gQkTm3h-wOil9FjOjSS_-40">
          <mxGeometry width="50" height="50" relative="1" as="geometry">
            <mxPoint x="759.56" y="280" as="sourcePoint" />
            <mxPoint x="809.56" y="230" as="targetPoint" />
          </mxGeometry>
        </mxCell>
        <mxCell id="gQkTm3h-wOil9FjOjSS_-66" value="" style="endArrow=classic;html=1;rounded=0;" edge="1" parent="1">
          <mxGeometry width="50" height="50" relative="1" as="geometry">
            <mxPoint x="840" y="318" as="sourcePoint" />
            <mxPoint x="877" y="318" as="targetPoint" />
          </mxGeometry>
        </mxCell>
      </root>
    </mxGraphModel>
  </diagram>
  <diagram id="5wf50nxG1LTIoH63Z_s1" name="깃허브 구성도">
    <mxGraphModel dx="1434" dy="749" grid="1" gridSize="10" guides="1" tooltips="1" connect="1" arrows="1" fold="1" page="1" pageScale="1" pageWidth="827" pageHeight="1169" math="0" shadow="0">
      <root>
        <mxCell id="0" />
        <mxCell id="1" parent="0" />
        <mxCell id="W_QJrCDsmPilr3WceCYU-1" value="" style="rounded=0;whiteSpace=wrap;html=1;" vertex="1" parent="1">
          <mxGeometry x="70" y="52.5" width="960" height="657.5" as="geometry" />
        </mxCell>
        <mxCell id="W_QJrCDsmPilr3WceCYU-2" value="" style="rounded=0;whiteSpace=wrap;html=1;fillColor=#e1d5e7;strokeColor=#9673a6;rotation=-90;" vertex="1" parent="1">
          <mxGeometry x="687.8199999999999" y="247.2" width="59.39" height="10" as="geometry" />
        </mxCell>
        <mxCell id="W_QJrCDsmPilr3WceCYU-3" value="" style="rounded=0;whiteSpace=wrap;html=1;fillColor=#f8cecc;strokeColor=#b85450;rotation=-90;" vertex="1" parent="1">
          <mxGeometry x="613.28" y="521.72" width="208.44" height="10" as="geometry" />
        </mxCell>
        <mxCell id="W_QJrCDsmPilr3WceCYU-4" value="" style="rounded=0;whiteSpace=wrap;html=1;fillColor=#f8cecc;strokeColor=#b85450;" vertex="1" parent="1">
          <mxGeometry x="261.26" y="632.5" width="668.74" height="10" as="geometry" />
        </mxCell>
        <mxCell id="W_QJrCDsmPilr3WceCYU-5" value="" style="rounded=0;whiteSpace=wrap;html=1;fillColor=#f8cecc;strokeColor=#b85450;rotation=-90;" vertex="1" parent="1">
          <mxGeometry x="423.28" y="521.72" width="208.44" height="10" as="geometry" />
        </mxCell>
        <mxCell id="W_QJrCDsmPilr3WceCYU-6" value="" style="rounded=0;whiteSpace=wrap;html=1;fillColor=#d5e8d4;strokeColor=#82b366;rotation=-90;" vertex="1" parent="1">
          <mxGeometry x="217.82" y="340" width="59.39" height="10" as="geometry" />
        </mxCell>
        <mxCell id="W_QJrCDsmPilr3WceCYU-7" value="" style="rounded=0;whiteSpace=wrap;html=1;fillColor=#d5e8d4;strokeColor=#82b366;" vertex="1" parent="1">
          <mxGeometry x="261.26" y="307.5" width="668.74" height="10" as="geometry" />
        </mxCell>
        <mxCell id="W_QJrCDsmPilr3WceCYU-8" value="" style="rounded=0;whiteSpace=wrap;html=1;fillColor=#dae8fc;strokeColor=#6c8ebf;" vertex="1" parent="1">
          <mxGeometry x="261.26" y="392.5" width="668.74" height="10" as="geometry" />
        </mxCell>
        <mxCell id="W_QJrCDsmPilr3WceCYU-9" value="" style="rounded=0;whiteSpace=wrap;html=1;fillColor=#e1d5e7;strokeColor=#9673a6;" vertex="1" parent="1">
          <mxGeometry x="261.26" y="212.5" width="668.74" height="10" as="geometry" />
        </mxCell>
        <mxCell id="W_QJrCDsmPilr3WceCYU-10" value="" style="ellipse;whiteSpace=wrap;html=1;aspect=fixed;fillColor=#e1d5e7;strokeColor=#9673a6;" vertex="1" parent="1">
          <mxGeometry x="360" y="117.5" width="35" height="35" as="geometry" />
        </mxCell>
        <mxCell id="W_QJrCDsmPilr3WceCYU-11" value="" style="ellipse;whiteSpace=wrap;html=1;aspect=fixed;fillColor=#f8cecc;strokeColor=#b85450;" vertex="1" parent="1">
          <mxGeometry x="298.76" y="117.5" width="35" height="35" as="geometry" />
        </mxCell>
        <mxCell id="W_QJrCDsmPilr3WceCYU-12" value="" style="rounded=0;whiteSpace=wrap;html=1;fillColor=#e1d5e7;strokeColor=#9673a6;rotation=-90;" vertex="1" parent="1">
          <mxGeometry x="217.82" y="247.2" width="59.39" height="10" as="geometry" />
        </mxCell>
        <mxCell id="W_QJrCDsmPilr3WceCYU-13" value="" style="rounded=0;whiteSpace=wrap;html=1;fillColor=#f8cecc;strokeColor=#b85450;" vertex="1" parent="1">
          <mxGeometry x="253.45" y="562.5" width="676.55" height="10" as="geometry" />
        </mxCell>
        <mxCell id="W_QJrCDsmPilr3WceCYU-14" value="" style="rounded=0;whiteSpace=wrap;html=1;fillColor=#f8cecc;strokeColor=#b85450;" vertex="1" parent="1">
          <mxGeometry x="265" y="492.5" width="665" height="10" as="geometry" />
        </mxCell>
        <mxCell id="W_QJrCDsmPilr3WceCYU-15" value="" style="rounded=0;whiteSpace=wrap;html=1;fillColor=#f8cecc;strokeColor=#b85450;rotation=-90;" vertex="1" parent="1">
          <mxGeometry x="221.57" y="450" width="51.88" height="10" as="geometry" />
        </mxCell>
        <mxCell id="W_QJrCDsmPilr3WceCYU-16" value="main" style="rounded=1;whiteSpace=wrap;html=1;fillColor=#e1d5e7;strokeColor=#9673a6;" vertex="1" parent="1">
          <mxGeometry x="143.13" y="205" width="80" height="30" as="geometry" />
        </mxCell>
        <mxCell id="W_QJrCDsmPilr3WceCYU-17" value="release" style="rounded=1;whiteSpace=wrap;html=1;fillColor=#d5e8d4;strokeColor=#82b366;" vertex="1" parent="1">
          <mxGeometry x="143.13" y="300" width="80" height="30" as="geometry" />
        </mxCell>
        <mxCell id="W_QJrCDsmPilr3WceCYU-18" value="" style="ellipse;whiteSpace=wrap;html=1;aspect=fixed;fillColor=#e1d5e7;strokeColor=#9673a6;" vertex="1" parent="1">
          <mxGeometry x="230" y="200" width="35" height="35" as="geometry" />
        </mxCell>
        <mxCell id="W_QJrCDsmPilr3WceCYU-19" value="" style="ellipse;whiteSpace=wrap;html=1;aspect=fixed;" vertex="1" parent="1">
          <mxGeometry x="233.76" y="203.75" width="27.5" height="27.5" as="geometry" />
        </mxCell>
        <mxCell id="W_QJrCDsmPilr3WceCYU-20" value="develop" style="rounded=1;whiteSpace=wrap;html=1;fillColor=#dae8fc;strokeColor=#6c8ebf;" vertex="1" parent="1">
          <mxGeometry x="143.13" y="385" width="80" height="30" as="geometry" />
        </mxCell>
        <mxCell id="W_QJrCDsmPilr3WceCYU-21" value="develop/front" style="rounded=1;whiteSpace=wrap;html=1;fillColor=#f8cecc;strokeColor=#b85450;" vertex="1" parent="1">
          <mxGeometry x="143.13" y="482.5" width="80" height="30" as="geometry" />
        </mxCell>
        <mxCell id="W_QJrCDsmPilr3WceCYU-22" value="develop/sever" style="rounded=1;whiteSpace=wrap;html=1;fillColor=#f8cecc;strokeColor=#b85450;" vertex="1" parent="1">
          <mxGeometry x="143.13" y="552.5" width="80" height="30" as="geometry" />
        </mxCell>
        <mxCell id="W_QJrCDsmPilr3WceCYU-23" value="develop/client" style="rounded=1;whiteSpace=wrap;html=1;fillColor=#f8cecc;strokeColor=#b85450;" vertex="1" parent="1">
          <mxGeometry x="143.13" y="622.5" width="80" height="30" as="geometry" />
        </mxCell>
        <mxCell id="W_QJrCDsmPilr3WceCYU-24" value="" style="ellipse;whiteSpace=wrap;html=1;aspect=fixed;" vertex="1" parent="1">
          <mxGeometry x="363.75" y="121.25" width="27.5" height="27.5" as="geometry" />
        </mxCell>
        <mxCell id="W_QJrCDsmPilr3WceCYU-25" value="" style="ellipse;whiteSpace=wrap;html=1;aspect=fixed;fillColor=#dae8fc;strokeColor=#6c8ebf;" vertex="1" parent="1">
          <mxGeometry x="242.20999999999998" y="117.5" width="35" height="35" as="geometry" />
        </mxCell>
        <mxCell id="W_QJrCDsmPilr3WceCYU-26" value="" style="ellipse;whiteSpace=wrap;html=1;aspect=fixed;" vertex="1" parent="1">
          <mxGeometry x="302.51" y="121.25" width="27.5" height="27.5" as="geometry" />
        </mxCell>
        <mxCell id="W_QJrCDsmPilr3WceCYU-27" value="" style="ellipse;whiteSpace=wrap;html=1;aspect=fixed;fillColor=#d5e8d4;strokeColor=#82b366;" vertex="1" parent="1">
          <mxGeometry x="423.28" y="117.5" width="35" height="35" as="geometry" />
        </mxCell>
        <mxCell id="W_QJrCDsmPilr3WceCYU-28" value="" style="ellipse;whiteSpace=wrap;html=1;aspect=fixed;" vertex="1" parent="1">
          <mxGeometry x="245.95999999999998" y="121.25" width="27.5" height="27.5" as="geometry" />
        </mxCell>
        <mxCell id="W_QJrCDsmPilr3WceCYU-29" value="" style="ellipse;whiteSpace=wrap;html=1;aspect=fixed;" vertex="1" parent="1">
          <mxGeometry x="427.03" y="121.25" width="27.5" height="27.5" as="geometry" />
        </mxCell>
        <mxCell id="W_QJrCDsmPilr3WceCYU-30" value="" style="ellipse;whiteSpace=wrap;html=1;aspect=fixed;fillColor=#dae8fc;strokeColor=#6c8ebf;" vertex="1" parent="1">
          <mxGeometry x="230.01" y="380" width="35" height="35" as="geometry" />
        </mxCell>
        <mxCell id="W_QJrCDsmPilr3WceCYU-31" value="" style="ellipse;whiteSpace=wrap;html=1;aspect=fixed;" vertex="1" parent="1">
          <mxGeometry x="233.76" y="383.75" width="27.5" height="27.5" as="geometry" />
        </mxCell>
        <mxCell id="W_QJrCDsmPilr3WceCYU-32" value="" style="ellipse;whiteSpace=wrap;html=1;aspect=fixed;fillColor=#d5e8d4;strokeColor=#82b366;" vertex="1" parent="1">
          <mxGeometry x="230.01" y="295" width="35" height="35" as="geometry" />
        </mxCell>
        <mxCell id="W_QJrCDsmPilr3WceCYU-33" value="" style="ellipse;whiteSpace=wrap;html=1;aspect=fixed;" vertex="1" parent="1">
          <mxGeometry x="233.76" y="298.75" width="27.5" height="27.5" as="geometry" />
        </mxCell>
        <mxCell id="W_QJrCDsmPilr3WceCYU-34" value="" style="ellipse;whiteSpace=wrap;html=1;aspect=fixed;fillColor=#f8cecc;strokeColor=#b85450;" vertex="1" parent="1">
          <mxGeometry x="230.01" y="480" width="35" height="35" as="geometry" />
        </mxCell>
        <mxCell id="W_QJrCDsmPilr3WceCYU-35" value="" style="ellipse;whiteSpace=wrap;html=1;aspect=fixed;" vertex="1" parent="1">
          <mxGeometry x="233.76" y="483.75" width="27.5" height="27.5" as="geometry" />
        </mxCell>
        <mxCell id="W_QJrCDsmPilr3WceCYU-36" value="" style="ellipse;whiteSpace=wrap;html=1;aspect=fixed;fillColor=#f8cecc;strokeColor=#b85450;" vertex="1" parent="1">
          <mxGeometry x="230.01" y="550" width="35" height="35" as="geometry" />
        </mxCell>
        <mxCell id="W_QJrCDsmPilr3WceCYU-37" value="" style="ellipse;whiteSpace=wrap;html=1;aspect=fixed;" vertex="1" parent="1">
          <mxGeometry x="233.76" y="553.75" width="27.5" height="27.5" as="geometry" />
        </mxCell>
        <mxCell id="W_QJrCDsmPilr3WceCYU-38" value="" style="ellipse;whiteSpace=wrap;html=1;aspect=fixed;fillColor=#f8cecc;strokeColor=#b85450;" vertex="1" parent="1">
          <mxGeometry x="230.01" y="620" width="35" height="35" as="geometry" />
        </mxCell>
        <mxCell id="W_QJrCDsmPilr3WceCYU-39" value="" style="ellipse;whiteSpace=wrap;html=1;aspect=fixed;" vertex="1" parent="1">
          <mxGeometry x="233.76" y="623.75" width="27.5" height="27.5" as="geometry" />
        </mxCell>
        <mxCell id="W_QJrCDsmPilr3WceCYU-40" value="" style="ellipse;whiteSpace=wrap;html=1;aspect=fixed;fillColor=#f8cecc;strokeColor=#b85450;" vertex="1" parent="1">
          <mxGeometry x="333.76" y="480" width="35" height="35" as="geometry" />
        </mxCell>
        <mxCell id="W_QJrCDsmPilr3WceCYU-41" value="" style="ellipse;whiteSpace=wrap;html=1;aspect=fixed;" vertex="1" parent="1">
          <mxGeometry x="337.51" y="483.75" width="27.5" height="27.5" as="geometry" />
        </mxCell>
        <mxCell id="W_QJrCDsmPilr3WceCYU-42" value="" style="ellipse;whiteSpace=wrap;html=1;aspect=fixed;fillColor=#f8cecc;strokeColor=#b85450;" vertex="1" parent="1">
          <mxGeometry x="414" y="480" width="35" height="35" as="geometry" />
        </mxCell>
        <mxCell id="W_QJrCDsmPilr3WceCYU-43" value="" style="ellipse;whiteSpace=wrap;html=1;aspect=fixed;" vertex="1" parent="1">
          <mxGeometry x="417.75" y="483.75" width="27.5" height="27.5" as="geometry" />
        </mxCell>
        <mxCell id="W_QJrCDsmPilr3WceCYU-44" value="" style="ellipse;whiteSpace=wrap;html=1;aspect=fixed;fillColor=#f8cecc;strokeColor=#b85450;" vertex="1" parent="1">
          <mxGeometry x="295.01" y="550" width="35" height="35" as="geometry" />
        </mxCell>
        <mxCell id="W_QJrCDsmPilr3WceCYU-45" value="" style="ellipse;whiteSpace=wrap;html=1;aspect=fixed;" vertex="1" parent="1">
          <mxGeometry x="298.76" y="553.75" width="27.5" height="27.5" as="geometry" />
        </mxCell>
        <mxCell id="W_QJrCDsmPilr3WceCYU-46" value="" style="ellipse;whiteSpace=wrap;html=1;aspect=fixed;fillColor=#f8cecc;strokeColor=#b85450;" vertex="1" parent="1">
          <mxGeometry x="379" y="550" width="35" height="35" as="geometry" />
        </mxCell>
        <mxCell id="W_QJrCDsmPilr3WceCYU-47" value="" style="ellipse;whiteSpace=wrap;html=1;aspect=fixed;" vertex="1" parent="1">
          <mxGeometry x="382.75" y="553.75" width="27.5" height="27.5" as="geometry" />
        </mxCell>
        <mxCell id="W_QJrCDsmPilr3WceCYU-48" value="" style="ellipse;whiteSpace=wrap;html=1;aspect=fixed;fillColor=#f8cecc;strokeColor=#b85450;" vertex="1" parent="1">
          <mxGeometry x="510" y="550" width="35" height="35" as="geometry" />
        </mxCell>
        <mxCell id="W_QJrCDsmPilr3WceCYU-49" value="" style="ellipse;whiteSpace=wrap;html=1;aspect=fixed;" vertex="1" parent="1">
          <mxGeometry x="513.75" y="553.75" width="27.5" height="27.5" as="geometry" />
        </mxCell>
        <mxCell id="W_QJrCDsmPilr3WceCYU-50" value="" style="ellipse;whiteSpace=wrap;html=1;aspect=fixed;fillColor=#f8cecc;strokeColor=#b85450;" vertex="1" parent="1">
          <mxGeometry x="443.13" y="620" width="35" height="35" as="geometry" />
        </mxCell>
        <mxCell id="W_QJrCDsmPilr3WceCYU-51" value="" style="ellipse;whiteSpace=wrap;html=1;aspect=fixed;" vertex="1" parent="1">
          <mxGeometry x="446.88" y="623.75" width="27.5" height="27.5" as="geometry" />
        </mxCell>
        <mxCell id="W_QJrCDsmPilr3WceCYU-52" value="" style="ellipse;whiteSpace=wrap;html=1;aspect=fixed;fillColor=#f8cecc;strokeColor=#b85450;" vertex="1" parent="1">
          <mxGeometry x="510" y="480" width="35" height="35" as="geometry" />
        </mxCell>
        <mxCell id="W_QJrCDsmPilr3WceCYU-53" value="" style="ellipse;whiteSpace=wrap;html=1;aspect=fixed;" vertex="1" parent="1">
          <mxGeometry x="513.75" y="483.75" width="27.5" height="27.5" as="geometry" />
        </mxCell>
        <mxCell id="W_QJrCDsmPilr3WceCYU-54" value="" style="ellipse;whiteSpace=wrap;html=1;aspect=fixed;fillColor=#f8cecc;strokeColor=#b85450;" vertex="1" parent="1">
          <mxGeometry x="510" y="620" width="35" height="35" as="geometry" />
        </mxCell>
        <mxCell id="W_QJrCDsmPilr3WceCYU-55" value="" style="ellipse;whiteSpace=wrap;html=1;aspect=fixed;" vertex="1" parent="1">
          <mxGeometry x="513.75" y="623.75" width="27.5" height="27.5" as="geometry" />
        </mxCell>
        <mxCell id="W_QJrCDsmPilr3WceCYU-56" value="" style="ellipse;whiteSpace=wrap;html=1;aspect=fixed;fillColor=#dae8fc;strokeColor=#6c8ebf;" vertex="1" parent="1">
          <mxGeometry x="510" y="380" width="35" height="35" as="geometry" />
        </mxCell>
        <mxCell id="W_QJrCDsmPilr3WceCYU-57" value="" style="ellipse;whiteSpace=wrap;html=1;aspect=fixed;" vertex="1" parent="1">
          <mxGeometry x="513.75" y="383.75" width="27.5" height="27.5" as="geometry" />
        </mxCell>
        <mxCell id="W_QJrCDsmPilr3WceCYU-58" value="" style="ellipse;whiteSpace=wrap;html=1;aspect=fixed;fillColor=#f8cecc;strokeColor=#b85450;" vertex="1" parent="1">
          <mxGeometry x="600" y="480" width="35" height="35" as="geometry" />
        </mxCell>
        <mxCell id="W_QJrCDsmPilr3WceCYU-59" value="" style="ellipse;whiteSpace=wrap;html=1;aspect=fixed;" vertex="1" parent="1">
          <mxGeometry x="603.75" y="483.75" width="27.5" height="27.5" as="geometry" />
        </mxCell>
        <mxCell id="W_QJrCDsmPilr3WceCYU-60" value="" style="ellipse;whiteSpace=wrap;html=1;aspect=fixed;fillColor=#f8cecc;strokeColor=#b85450;" vertex="1" parent="1">
          <mxGeometry x="625" y="550" width="35" height="35" as="geometry" />
        </mxCell>
        <mxCell id="W_QJrCDsmPilr3WceCYU-61" value="" style="ellipse;whiteSpace=wrap;html=1;aspect=fixed;" vertex="1" parent="1">
          <mxGeometry x="628.75" y="553.75" width="27.5" height="27.5" as="geometry" />
        </mxCell>
        <mxCell id="W_QJrCDsmPilr3WceCYU-62" value="" style="ellipse;whiteSpace=wrap;html=1;aspect=fixed;fillColor=#f8cecc;strokeColor=#b85450;" vertex="1" parent="1">
          <mxGeometry x="700" y="622.5" width="35" height="35" as="geometry" />
        </mxCell>
        <mxCell id="W_QJrCDsmPilr3WceCYU-63" value="" style="ellipse;whiteSpace=wrap;html=1;aspect=fixed;" vertex="1" parent="1">
          <mxGeometry x="703.75" y="626.25" width="27.5" height="27.5" as="geometry" />
        </mxCell>
        <mxCell id="W_QJrCDsmPilr3WceCYU-64" value="" style="ellipse;whiteSpace=wrap;html=1;aspect=fixed;fillColor=#f8cecc;strokeColor=#b85450;" vertex="1" parent="1">
          <mxGeometry x="700" y="550" width="35" height="35" as="geometry" />
        </mxCell>
        <mxCell id="W_QJrCDsmPilr3WceCYU-65" value="" style="ellipse;whiteSpace=wrap;html=1;aspect=fixed;" vertex="1" parent="1">
          <mxGeometry x="703.75" y="553.75" width="27.5" height="27.5" as="geometry" />
        </mxCell>
        <mxCell id="W_QJrCDsmPilr3WceCYU-66" value="" style="ellipse;whiteSpace=wrap;html=1;aspect=fixed;fillColor=#f8cecc;strokeColor=#b85450;" vertex="1" parent="1">
          <mxGeometry x="700" y="480" width="35" height="35" as="geometry" />
        </mxCell>
        <mxCell id="W_QJrCDsmPilr3WceCYU-67" value="" style="ellipse;whiteSpace=wrap;html=1;aspect=fixed;" vertex="1" parent="1">
          <mxGeometry x="703.75" y="483.75" width="27.5" height="27.5" as="geometry" />
        </mxCell>
        <mxCell id="W_QJrCDsmPilr3WceCYU-68" value="" style="ellipse;whiteSpace=wrap;html=1;aspect=fixed;fillColor=#dae8fc;strokeColor=#6c8ebf;" vertex="1" parent="1">
          <mxGeometry x="700" y="380" width="35" height="35" as="geometry" />
        </mxCell>
        <mxCell id="W_QJrCDsmPilr3WceCYU-69" value="" style="ellipse;whiteSpace=wrap;html=1;aspect=fixed;" vertex="1" parent="1">
          <mxGeometry x="703.75" y="383.75" width="27.5" height="27.5" as="geometry" />
        </mxCell>
        <mxCell id="W_QJrCDsmPilr3WceCYU-70" value="" style="rounded=0;whiteSpace=wrap;html=1;fillColor=#d5e8d4;strokeColor=#82b366;rotation=-90;" vertex="1" parent="1">
          <mxGeometry x="687.81" y="340" width="59.39" height="10" as="geometry" />
        </mxCell>
        <mxCell id="W_QJrCDsmPilr3WceCYU-71" value="" style="ellipse;whiteSpace=wrap;html=1;aspect=fixed;fillColor=#d5e8d4;strokeColor=#82b366;" vertex="1" parent="1">
          <mxGeometry x="700.01" y="295" width="35" height="35" as="geometry" />
        </mxCell>
        <mxCell id="W_QJrCDsmPilr3WceCYU-72" value="" style="ellipse;whiteSpace=wrap;html=1;aspect=fixed;" vertex="1" parent="1">
          <mxGeometry x="703.76" y="298.75" width="27.5" height="27.5" as="geometry" />
        </mxCell>
        <mxCell id="W_QJrCDsmPilr3WceCYU-73" value="" style="ellipse;whiteSpace=wrap;html=1;aspect=fixed;fillColor=#e1d5e7;strokeColor=#9673a6;" vertex="1" parent="1">
          <mxGeometry x="700" y="200" width="35" height="35" as="geometry" />
        </mxCell>
        <mxCell id="W_QJrCDsmPilr3WceCYU-74" value="" style="ellipse;whiteSpace=wrap;html=1;aspect=fixed;" vertex="1" parent="1">
          <mxGeometry x="703.75" y="203.75" width="27.5" height="27.5" as="geometry" />
        </mxCell>
        <mxCell id="W_QJrCDsmPilr3WceCYU-75" value="" style="rounded=0;whiteSpace=wrap;html=1;fillColor=none;strokeWidth=3;strokeColor=#CCCCCC;" vertex="1" parent="1">
          <mxGeometry x="216.26" y="105" width="270" height="60" as="geometry" />
        </mxCell>
        <mxCell id="W_QJrCDsmPilr3WceCYU-76" value="&lt;b&gt;Branch&lt;br&gt;&lt;/b&gt;" style="text;html=1;strokeColor=#666666;fillColor=#f5f5f5;align=center;verticalAlign=middle;whiteSpace=wrap;rounded=0;fontColor=#333333;" vertex="1" parent="1">
          <mxGeometry x="223.13" y="75" width="85" height="30" as="geometry" />
        </mxCell>
      </root>
    </mxGraphModel>
  </diagram>
</mxfile>
